<svg width="121" height="44" viewBox="0 0 121 44" fill="none" xmlns="http://www.w3.org/2000/svg">
<path d="M1.984 21.336H7.264V43H1.984V21.336ZM18.88 21.336C18.5813 22.8507 18.2293 24.152 17.824 25.24C17.44 26.328 17.0133 27.2773 16.544 28.088C16.0747 28.8773 15.5733 29.5493 15.04 30.104C14.5067 30.6587 13.952 31.16 13.376 31.608L20.864 43H14.976L7.616 31.128V30.744C8.55467 30.296 9.344 29.7733 9.984 29.176C10.6453 28.5573 11.2 27.864 11.648 27.096C12.096 26.3067 12.4693 25.4427 12.768 24.504C13.088 23.544 13.376 22.488 13.632 21.336H18.88ZM30.1085 21.048C31.7938 21.048 33.2445 21.304 34.4605 21.816C35.6765 22.328 36.6792 23.0533 37.4685 23.992C38.2578 24.9307 38.8338 26.0827 39.1965 27.448C39.5805 28.792 39.7725 30.3067 39.7725 31.992C39.7725 33.656 39.5592 35.1813 39.1325 36.568C38.7272 37.9333 38.1085 39.1067 37.2765 40.088C36.4445 41.0693 35.3992 41.8373 34.1405 42.392C32.8818 42.9253 31.3992 43.192 29.6925 43.192C28.0072 43.192 26.5458 42.9573 25.3085 42.488C24.0925 41.9973 23.0898 41.2933 22.3005 40.376C21.5112 39.4373 20.9245 38.3067 20.5405 36.984C20.1778 35.6613 19.9965 34.1467 19.9965 32.44C19.9965 30.776 20.1992 29.2507 20.6045 27.864C21.0312 26.456 21.6605 25.2507 22.4925 24.248C23.3245 23.224 24.3698 22.4347 25.6285 21.88C26.9085 21.3253 28.4018 21.048 30.1085 21.048ZM29.6605 24.792C28.2738 24.792 27.2605 25.4427 26.6205 26.744C26.0018 28.024 25.6925 29.8053 25.6925 32.088C25.6925 33.176 25.7565 34.168 25.8845 35.064C26.0338 35.96 26.2685 36.7387 26.5885 37.4C26.9298 38.04 27.3885 38.5413 27.9645 38.904C28.5405 39.2667 29.2658 39.448 30.1405 39.448C31.5272 39.448 32.5298 38.8293 33.1485 37.592C33.7672 36.3547 34.0765 34.5947 34.0765 32.312C34.0765 31.224 34.0018 30.2213 33.8525 29.304C33.7245 28.3867 33.4898 27.5973 33.1485 26.936C32.8285 26.2533 32.3805 25.7307 31.8045 25.368C31.2285 24.984 30.5138 24.792 29.6605 24.792ZM48.3795 21.336H53.0835L61.0195 43H55.6755L54.0755 37.784H47.0675L45.4035 43H40.1555L48.3795 21.336ZM52.8915 33.88C52.6782 33.2613 52.4542 32.6213 52.2195 31.96C52.0062 31.2773 51.7928 30.616 51.5795 29.976C51.3875 29.336 51.2062 28.7387 51.0355 28.184C50.8648 27.608 50.7155 27.128 50.5875 26.744C50.4595 27.1493 50.3102 27.64 50.1395 28.216C49.9688 28.7707 49.7768 29.368 49.5635 30.008C49.3715 30.648 49.1582 31.2987 48.9235 31.96C48.7102 32.6213 48.4968 33.2613 48.2835 33.88H52.8915ZM62.9528 21.336H68.2328V39.128H75.8488V43H62.9528V21.336ZM84.7858 21.336H89.4898L97.4258 43H92.0818L90.4818 37.784H83.4738L81.8098 43H76.5617L84.7858 21.336ZM89.2978 33.88C89.0844 33.2613 88.8604 32.6213 88.6258 31.96C88.4124 31.2773 88.1991 30.616 87.9858 29.976C87.7938 29.336 87.6124 28.7387 87.4418 28.184C87.2711 27.608 87.1218 27.128 86.9938 26.744C86.8658 27.1493 86.7164 27.64 86.5458 28.216C86.3751 28.7707 86.1831 29.368 85.9698 30.008C85.7778 30.648 85.5644 31.2987 85.3298 31.96C85.1164 32.6213 84.9031 33.2613 84.6898 33.88H89.2978Z" fill="white"/>
<path d="M108.03 12.5C108.329 12.1915 108.435 11.7057 108.379 10.9509C108.323 10.1369 107.992 9.48711 107.556 9.33614C106.932 9.11953 106.346 10.0319 106.346 11.2266C106.346 11.8961 106.433 12.2046 106.72 12.5C106.945 12.7363 106.97 12.7494 107.375 12.7494C107.78 12.7494 107.805 12.7363 108.03 12.5Z" fill="white"/>
<path d="M109.183 9.82844C109.426 9.57901 109.376 9.19829 109.083 9.06701C108.728 8.91604 108.341 9.2705 108.466 9.63808C108.603 10.0188 108.927 10.1041 109.183 9.82844Z" fill="white"/>
<path d="M112.506 8.82415C112.718 8.08898 112.488 7.24222 111.939 6.7368C111.371 6.21168 110.592 6.16573 110.187 6.63834C110.05 6.79587 110.118 6.82213 110.299 6.67772C110.636 6.4086 111.259 6.53331 111.721 6.95997C112.257 7.45884 112.488 8.47626 112.201 9.11296C111.989 9.57901 111.995 9.59214 112.226 9.32301C112.338 9.18517 112.469 8.96199 112.506 8.82415Z" fill="white"/>
<path d="M102.655 9.15891C102.35 8.79133 102.25 7.9577 102.449 7.44571C102.607 7.05087 102.859 6.73171 103.147 6.52871C103.453 6.31324 103.799 6.22863 104.114 6.32327C104.351 6.38891 104.787 6.83526 104.787 7.00592C104.787 7.05843 104.819 7.10438 104.856 7.10438C105.031 7.10438 104.644 6.40203 104.345 6.17886C104.066 5.96939 103.528 5.96182 103.147 6.14122C103.111 6.15858 103.075 6.1777 103.042 6.19855C102.512 6.52675 102.219 6.98623 102.094 7.67545C102.038 7.99052 102.044 8.1218 102.131 8.43687C102.231 8.79133 102.543 9.2705 102.686 9.2705C102.717 9.2705 102.705 9.21799 102.655 9.15891Z" fill="white"/>
<path d="M105.966 9.98597C106.196 9.90064 106.302 9.67747 106.246 9.41491C106.184 9.15235 106.103 9.07358 105.885 9.07358C105.442 9.07358 105.236 9.63808 105.573 9.92033C105.766 10.0844 105.723 10.0779 105.966 9.98597Z" fill="white"/>
<path d="M107.437 23.8506L107.718 23.7062L107.375 23.739C107.188 23.7587 106.951 23.7915 106.845 23.8112C106.745 23.8243 106.62 23.8112 106.571 23.7784C106.421 23.6799 106.589 23.5355 106.907 23.4896C107.057 23.4633 107.281 23.4042 107.406 23.3517C107.687 23.227 107.699 23.1023 107.425 23.1876C107.119 23.273 106.483 23.2664 106.514 23.1679C106.552 23.0629 106.664 23.0104 107.088 22.9119C107.288 22.866 107.456 22.7807 107.531 22.7085L107.718 22.5837L107.531 22.6231C107.431 22.6428 107.157 22.6822 106.926 22.7085C106.663 22.7384 106.54 22.7347 106.553 22.6231C106.559 22.5672 106.516 22.5474 106.448 22.5261C106.38 22.5049 106.255 22.4951 106.034 22.4853C105.448 22.4525 105.455 22.5509 106.059 22.6756C106.427 22.7544 106.596 22.8726 106.521 23.0038C106.502 23.0301 106.259 23.0432 105.984 23.0235L105.473 22.9841L105.723 23.1154C105.86 23.1876 106.09 23.2467 106.228 23.2467C106.408 23.2467 106.502 23.2795 106.527 23.3517C106.602 23.5486 106.496 23.588 105.978 23.5486L105.473 23.5093L105.723 23.6405C105.86 23.7127 106.047 23.7718 106.14 23.7718C106.377 23.7718 106.502 23.8375 106.502 23.9491C106.502 24.0935 107.076 24.0344 107.437 23.8506Z" fill="white"/>
<path d="M110.014 11.8305C109.935 11.9295 109.852 12.0252 109.769 12.1127L110.014 12.1154V11.8305Z" fill="white"/>
<path d="M110.014 11.8305V12.1154L110.299 12.1185V11.4379C110.214 11.5678 110.117 11.702 110.014 11.8305Z" fill="white"/>
<path d="M103.621 17.9752C103.44 17.7771 103.271 17.5734 103.147 17.3996V17.9752H103.621Z" fill="white"/>
<path d="M103.01 17.1867C102.917 17.0226 102.817 16.8847 102.792 16.8847C102.761 16.8847 102.692 17.0882 102.643 17.3377C102.606 17.504 102.581 17.7016 102.566 17.9752H103.093H103.147V17.3996C103.092 17.3215 103.045 17.2495 103.01 17.1867Z" fill="white"/>
<path d="M105.592 6.60552C105.66 6.76962 105.729 6.90746 105.741 6.90746C105.791 6.90746 105.66 6.36265 105.561 6.15917C105.511 6.05414 105.486 5.95568 105.498 5.93599C105.517 5.92286 105.704 5.87035 105.922 5.81784C106.539 5.67999 107.443 5.63405 107.961 5.71938C108.369 5.78903 108.977 5.97163 109.177 6.08103C109.203 6.09534 109.222 6.10839 109.233 6.11978C109.264 6.14604 109.245 6.25763 109.189 6.36921C109.033 6.68429 109.071 6.69085 109.308 6.39547C109.439 6.23793 109.701 6.04101 109.944 5.90973C110.088 5.835 110.196 5.78594 110.299 5.75419V0.737305H109.183L103.871 0.737305V5.44715C104.572 5.43942 105.297 5.91064 105.592 6.60552Z" fill="white"/>
<path d="M110.299 27.7481V22.3329C109.791 22.7261 109.08 23.3792 108.341 23.7835C107.456 24.2677 106.97 24.4333 106.658 24.4333C106.408 24.4679 106.305 24.3165 106.284 24.2364C105.948 24.2177 105.445 24.1798 104.974 24.1051C104.504 24.0305 104.195 23.9182 103.871 23.7556V27.7481H110.299Z" fill="white"/>
<path d="M110.299 12.1185L120.001 12.2243V10.9771L111.093 10.9523L110.571 10.9509C110.513 11.0872 110.417 11.2584 110.299 11.4379V12.1185Z" fill="white"/>
<path d="M110.299 22.3329V27.7481H111.093V21.6108C110.85 21.8734 110.462 22.2016 110.299 22.3329Z" fill="white"/>
<path d="M109.782 19.2478C109.447 18.9624 109.027 18.5257 109.027 18.401C109.027 18.2041 109.133 18.1778 109.326 18.3157C109.42 18.3879 109.595 18.4929 109.713 18.5586C109.925 18.6767 109.925 18.6701 109.607 18.3026C109.407 18.0794 109.295 17.8956 109.32 17.8365C109.37 17.6921 109.482 17.7118 109.819 17.9218C110.312 18.2238 110.38 18.2238 110.068 17.9022C109.906 17.7315 109.775 17.5543 109.775 17.5018C109.775 17.3311 109.95 17.3311 110.162 17.4952C110.361 17.6527 110.729 17.8693 110.804 17.8693C110.823 17.8693 110.711 17.7446 110.555 17.5871C110.23 17.2589 110.212 17.1801 110.436 17.121C110.573 17.0817 110.661 17.1407 111.066 17.5477L111.093 17.5743C111.378 17.8582 111.507 17.9864 111.721 17.9752H120.001V12.2243L110.299 12.1185L110.014 12.1154L109.769 12.1127C109.445 12.454 109.227 12.6116 108.828 12.8085C108.173 13.1301 107.849 13.2089 107.238 13.2089C106.67 13.2089 106.128 13.0776 105.716 12.8479C105.554 12.756 105.405 12.6838 105.373 12.6838C105.28 12.6838 105.748 13.012 106.047 13.1564C106.209 13.2352 106.346 13.3139 106.346 13.3336C106.346 13.3533 106.041 13.5502 105.667 13.7603C105.049 14.1147 104.981 14.1738 104.918 14.3904C104.762 14.9484 104.843 15.3356 105.267 16.0774C105.561 16.5894 105.573 16.6222 105.461 16.6222C105.367 16.6222 104.831 16.3465 104.6 16.189C104.513 16.1299 104.557 16.1955 104.694 16.3399C104.837 16.4909 105.336 16.9044 105.592 17.016C105.966 17.2129 106.359 17.4433 106.159 17.5743C106.029 17.6951 105.378 17.4624 105.286 17.4099C104.923 17.1633 105.235 17.4746 105.579 17.8177L105.592 17.83C105.785 18.0269 105.847 18.1975 105.723 18.1975C105.623 18.1975 105.049 17.8825 105.006 17.8037C104.987 17.7709 104.937 17.7381 104.893 17.7381C104.856 17.7381 104.974 17.9022 105.161 18.0991C105.411 18.3616 105.479 18.4798 105.43 18.5323C105.336 18.6308 105.168 18.5651 104.787 18.2894C104.619 18.1647 104.476 18.0859 104.476 18.1122C104.476 18.1385 104.607 18.3026 104.769 18.4732C104.852 18.5894 104.993 18.8294 104.893 18.8605C104.737 18.9327 104.694 18.9196 104.382 18.6964C104.238 18.5897 104.056 18.425 103.871 18.2384V21.4927C104.102 22.1359 106.407 22.1044 106.514 22.1359C106.701 22.1909 106.669 22.3313 106.926 22.3329C107.144 22.3342 107.427 22.1267 107.587 22.0703C108.462 21.5152 110.28 20.2631 110.555 19.6951C110.442 19.6428 110.351 19.5958 110.299 19.5662C110.11 19.4785 109.897 19.3345 109.782 19.2478Z" fill="white"/>
<path d="M110.299 0.737305V5.75419C110.44 5.71066 110.571 5.69969 110.773 5.69969C110.881 5.70109 110.988 5.71239 111.093 5.73272V0.737305H110.299Z" fill="white"/>
<path d="M111.047 10.5833C110.642 10.5833 110.598 10.5964 110.63 10.7015C110.641 10.7516 110.619 10.8396 110.571 10.9509L111.093 10.9523V10.5831C111.078 10.5832 111.063 10.5833 111.047 10.5833Z" fill="white"/>
<path d="M102.2 13.6684L102.312 13.1498C102.374 12.861 102.512 12.4475 102.611 12.2243C102.633 12.1797 102.658 12.1326 102.686 12.0837C102.805 11.8781 102.976 11.6419 103.147 11.4379C103.326 11.2261 103.505 11.049 103.628 10.9771H95.1855V17.9752H102.566C102.581 17.7016 102.606 17.504 102.643 17.3377C102.692 17.0882 102.761 16.8847 102.792 16.8847C101.961 15.8345 102.051 14.3029 102.2 13.6684Z" fill="white"/>
<path d="M111.066 17.5477C110.661 17.1407 110.573 17.0817 110.436 17.121C110.212 17.1801 110.23 17.2589 110.555 17.5871C110.711 17.7446 110.823 17.8693 110.804 17.8693C110.729 17.8693 110.361 17.6527 110.162 17.4952C109.95 17.3311 109.775 17.3311 109.775 17.5018C109.775 17.5543 109.906 17.7315 110.068 17.9022C110.38 18.2238 110.312 18.2238 109.819 17.9218C109.482 17.7118 109.37 17.6921 109.32 17.8365C109.295 17.8956 109.407 18.0794 109.607 18.3026C109.925 18.6701 109.925 18.6767 109.713 18.5586C109.595 18.4929 109.42 18.3879 109.326 18.3157C109.133 18.1778 109.027 18.2041 109.027 18.401C109.027 18.5257 109.447 18.9624 109.782 19.2478C109.897 19.3345 110.11 19.4785 110.299 19.5662C110.351 19.5958 110.442 19.6428 110.555 19.6951C110.28 20.2631 108.462 21.5152 107.587 22.0703C107.427 22.1267 107.144 22.3342 106.926 22.3329C106.669 22.3313 106.701 22.1909 106.514 22.1359C106.407 22.1044 104.102 22.1359 103.871 21.4927V18.2384M111.066 17.5477L111.093 17.5743M111.066 17.5477C111.075 17.5567 111.084 17.5656 111.093 17.5743M109.769 12.1127C109.445 12.454 109.227 12.6116 108.828 12.8085C108.173 13.1301 107.849 13.2089 107.238 13.2089C106.67 13.2089 106.128 13.0776 105.716 12.8479C105.554 12.756 105.405 12.6838 105.373 12.6838C105.28 12.6838 105.748 13.012 106.047 13.1564C106.209 13.2352 106.346 13.3139 106.346 13.3336C106.346 13.3533 106.041 13.5502 105.667 13.7603C105.049 14.1147 104.981 14.1738 104.918 14.3904C104.762 14.9484 104.843 15.3356 105.267 16.0774C105.561 16.5894 105.573 16.6222 105.461 16.6222C105.367 16.6222 104.831 16.3465 104.6 16.189C104.513 16.1299 104.557 16.1955 104.694 16.3399C104.837 16.4909 105.336 16.9044 105.592 17.016C105.966 17.2129 106.359 17.4433 106.159 17.5743C106.029 17.6951 105.378 17.4624 105.286 17.4099C104.923 17.1633 105.235 17.4746 105.579 17.8177M109.769 12.1127C109.852 12.0252 109.935 11.9295 110.014 11.8305M109.769 12.1127L110.014 12.1154M105.592 17.83C105.785 18.0269 105.847 18.1975 105.723 18.1975C105.623 18.1975 105.049 17.8825 105.006 17.8037C104.987 17.7709 104.937 17.7381 104.893 17.7381C104.856 17.7381 104.974 17.9022 105.161 18.0991C105.411 18.3616 105.479 18.4798 105.43 18.5323C105.336 18.6308 105.168 18.5651 104.787 18.2894C104.619 18.1647 104.476 18.0859 104.476 18.1122C104.476 18.1385 104.607 18.3026 104.769 18.4732C104.852 18.5894 104.993 18.8294 104.893 18.8605C104.737 18.9327 104.694 18.9196 104.382 18.6964C104.238 18.5897 104.056 18.425 103.871 18.2384M105.592 17.83L105.579 17.8177M105.592 17.83C105.588 17.8259 105.584 17.8218 105.579 17.8177M102.792 16.8847C102.817 16.8847 102.917 17.0226 103.01 17.1867C103.045 17.2495 103.092 17.3215 103.147 17.3996M102.792 16.8847C102.761 16.8847 102.692 17.0882 102.643 17.3377C102.606 17.504 102.581 17.7016 102.566 17.9752M102.792 16.8847C101.961 15.8345 102.051 14.3029 102.2 13.6684L102.312 13.1498C102.374 12.861 102.512 12.4475 102.611 12.2243C102.633 12.1797 102.658 12.1326 102.686 12.0837M120.001 12.2243V17.9752H111.721C111.507 17.9864 111.378 17.8582 111.093 17.5743M120.001 12.2243L110.299 12.1185M120.001 12.2243V10.9771L111.093 10.9523M102.566 17.9752H103.093H103.147M102.566 17.9752H95.1855V10.9771H103.628C103.505 11.049 103.326 11.2261 103.147 11.4379C102.976 11.6419 102.805 11.8781 102.686 12.0837M102.686 12.0837L102.543 12.0841M110.299 22.3329V27.7481M110.299 22.3329C109.791 22.7261 109.08 23.3792 108.341 23.7835C107.456 24.2677 106.97 24.4333 106.658 24.4333C106.408 24.4679 106.305 24.3165 106.284 24.2364C105.948 24.2177 105.445 24.1798 104.974 24.1051C104.504 24.0305 104.195 23.9182 103.871 23.7556V27.7481H110.299M110.299 22.3329C110.462 22.2016 110.85 21.8734 111.093 21.6108V27.7481H110.299M110.014 11.8305V12.1154M110.014 11.8305C110.117 11.702 110.214 11.5678 110.299 11.4379M110.014 12.1154L110.299 12.1185M110.299 12.1185V11.4379M110.299 11.4379C110.417 11.2584 110.513 11.0872 110.571 10.9509M110.299 0.737305V5.75419M110.299 0.737305H109.183L103.871 0.737305V5.44715C104.572 5.43942 105.297 5.91064 105.592 6.60552C105.66 6.76962 105.729 6.90746 105.741 6.90746C105.791 6.90746 105.66 6.36265 105.561 6.15917C105.511 6.05414 105.486 5.95568 105.498 5.93599C105.517 5.92286 105.704 5.87035 105.922 5.81784C106.539 5.67999 107.443 5.63405 107.961 5.71938C108.369 5.78903 108.977 5.97163 109.177 6.08103C109.203 6.09534 109.222 6.10839 109.233 6.11978C109.264 6.14604 109.245 6.25763 109.189 6.36921C109.033 6.68429 109.071 6.69085 109.308 6.39547C109.439 6.23793 109.701 6.04101 109.944 5.90973C110.088 5.835 110.196 5.78594 110.299 5.75419M110.299 0.737305H111.093V5.73272C110.988 5.71239 110.881 5.70109 110.773 5.69969C110.571 5.69969 110.44 5.71066 110.299 5.75419M103.621 17.9752C103.44 17.7771 103.271 17.5734 103.147 17.3996M103.621 17.9752H103.147M103.621 17.9752C103.703 18.0652 103.787 18.154 103.871 18.2384M103.147 6.14122C103.528 5.96182 104.066 5.96939 104.345 6.17886C104.644 6.40203 105.031 7.10438 104.856 7.10438C104.819 7.10438 104.787 7.05843 104.787 7.00592C104.787 6.83526 104.351 6.38891 104.114 6.32327C103.799 6.22863 103.453 6.31324 103.147 6.52871M103.147 6.14122C103.111 6.15858 103.075 6.1777 103.042 6.19855C102.512 6.52675 102.219 6.98623 102.094 7.67545C102.038 7.99052 102.044 8.1218 102.131 8.43687C102.231 8.79133 102.543 9.2705 102.686 9.2705C102.717 9.2705 102.705 9.21799 102.655 9.15891C102.35 8.79133 102.25 7.9577 102.449 7.44571C102.607 7.05087 102.859 6.73171 103.147 6.52871M103.147 6.14122V6.52871M103.147 17.3996V17.9752M110.571 10.9509C110.619 10.8396 110.641 10.7516 110.63 10.7015C110.598 10.5964 110.642 10.5833 111.047 10.5833C111.063 10.5833 111.078 10.5832 111.093 10.5831V10.9523M110.571 10.9509L111.093 10.9523M107.437 23.8506L107.718 23.7062L107.375 23.739C107.188 23.7587 106.951 23.7915 106.845 23.8112C106.745 23.8243 106.62 23.8112 106.571 23.7784C106.421 23.6799 106.589 23.5355 106.907 23.4896C107.057 23.4633 107.281 23.4042 107.406 23.3517C107.687 23.227 107.699 23.1023 107.425 23.1876C107.119 23.273 106.483 23.2664 106.514 23.1679C106.552 23.0629 106.664 23.0104 107.088 22.9119C107.288 22.866 107.456 22.7807 107.531 22.7085L107.718 22.5837L107.531 22.6231C107.431 22.6428 107.157 22.6822 106.926 22.7085C106.663 22.7384 106.54 22.7347 106.553 22.6231C106.559 22.5672 106.516 22.5474 106.448 22.5261C106.38 22.5049 106.255 22.4951 106.034 22.4853C105.448 22.4525 105.455 22.5509 106.059 22.6756C106.427 22.7544 106.596 22.8726 106.521 23.0038C106.502 23.0301 106.259 23.0432 105.984 23.0235L105.473 22.9841L105.723 23.1154C105.86 23.1876 106.09 23.2467 106.228 23.2467C106.408 23.2467 106.502 23.2795 106.527 23.3517C106.602 23.5486 106.496 23.588 105.978 23.5486L105.473 23.5093L105.723 23.6405C105.86 23.7127 106.047 23.7718 106.14 23.7718C106.377 23.7718 106.502 23.8375 106.502 23.9491C106.502 24.0935 107.076 24.0344 107.437 23.8506ZM108.03 12.5C108.329 12.1915 108.435 11.7057 108.379 10.9509C108.323 10.1369 107.992 9.48711 107.556 9.33614C106.932 9.11953 106.346 10.0319 106.346 11.2266C106.346 11.8961 106.433 12.2046 106.72 12.5C106.945 12.7363 106.97 12.7494 107.375 12.7494C107.78 12.7494 107.805 12.7363 108.03 12.5ZM105.966 9.98597C106.196 9.90064 106.302 9.67747 106.246 9.41491C106.184 9.15235 106.103 9.07358 105.885 9.07358C105.442 9.07358 105.236 9.63808 105.573 9.92033C105.766 10.0844 105.723 10.0779 105.966 9.98597ZM109.183 9.82844C109.426 9.57901 109.376 9.19829 109.083 9.06701C108.728 8.91604 108.341 9.2705 108.466 9.63808C108.603 10.0188 108.927 10.1041 109.183 9.82844ZM112.506 8.82415C112.718 8.08898 112.488 7.24222 111.939 6.7368C111.371 6.21168 110.592 6.16573 110.187 6.63834C110.05 6.79587 110.118 6.82213 110.299 6.67772C110.636 6.4086 111.259 6.53331 111.721 6.95997C112.257 7.45884 112.488 8.47626 112.201 9.11296C111.989 9.57901 111.995 9.59214 112.226 9.32301C112.338 9.18517 112.469 8.96199 112.506 8.82415Z" stroke="white" stroke-width="0.399513" stroke-linejoin="round"/>
<path d="M108.03 12.5C108.329 12.1915 108.435 11.7057 108.379 10.9509C108.323 10.1369 107.992 9.48711 107.556 9.33614C106.932 9.11953 106.346 10.0319 106.346 11.2266C106.346 11.8961 106.433 12.2046 106.72 12.5C106.945 12.7363 106.97 12.7494 107.375 12.7494C107.78 12.7494 107.805 12.7363 108.03 12.5Z" fill="white"/>
<path d="M109.183 9.82844C109.426 9.57901 109.376 9.19829 109.083 9.06701C108.728 8.91604 108.341 9.2705 108.466 9.63808C108.603 10.0188 108.927 10.1041 109.183 9.82844Z" fill="white"/>
<path d="M112.506 8.82415C112.718 8.08898 112.488 7.24222 111.939 6.7368C111.371 6.21168 110.592 6.16573 110.187 6.63834C110.05 6.79587 110.118 6.82213 110.299 6.67772C110.636 6.4086 111.259 6.53331 111.721 6.95997C112.257 7.45884 112.488 8.47626 112.201 9.11296C111.989 9.57901 111.995 9.59214 112.226 9.32301C112.338 9.18517 112.469 8.96199 112.506 8.82415Z" fill="white"/>
<path d="M102.655 9.15891C102.35 8.79133 102.25 7.9577 102.449 7.44571C102.607 7.05087 102.859 6.73171 103.147 6.52871C103.453 6.31324 103.799 6.22863 104.114 6.32327C104.351 6.38891 104.787 6.83526 104.787 7.00592C104.787 7.05843 104.819 7.10438 104.856 7.10438C105.031 7.10438 104.644 6.40203 104.345 6.17886C104.066 5.96939 103.528 5.96182 103.147 6.14122C103.111 6.15858 103.075 6.1777 103.042 6.19855C102.512 6.52675 102.219 6.98623 102.094 7.67545C102.038 7.99052 102.044 8.1218 102.131 8.43687C102.231 8.79133 102.543 9.2705 102.686 9.2705C102.717 9.2705 102.705 9.21799 102.655 9.15891Z" fill="white"/>
<path d="M105.966 9.98597C106.196 9.90064 106.302 9.67747 106.246 9.41491C106.184 9.15235 106.103 9.07358 105.885 9.07358C105.442 9.07358 105.236 9.63808 105.573 9.92033C105.766 10.0844 105.723 10.0779 105.966 9.98597Z" fill="white"/>
<path d="M107.437 23.8506L107.718 23.7062L107.375 23.739C107.188 23.7587 106.951 23.7915 106.845 23.8112C106.745 23.8243 106.62 23.8112 106.571 23.7784C106.421 23.6799 106.589 23.5355 106.907 23.4896C107.057 23.4633 107.281 23.4042 107.406 23.3517C107.687 23.227 107.699 23.1023 107.425 23.1876C107.119 23.273 106.483 23.2664 106.514 23.1679C106.552 23.0629 106.664 23.0104 107.088 22.9119C107.288 22.866 107.456 22.7807 107.531 22.7085L107.718 22.5837L107.531 22.6231C107.431 22.6428 107.157 22.6822 106.926 22.7085C106.663 22.7384 106.54 22.7347 106.553 22.6231C106.559 22.5672 106.516 22.5474 106.448 22.5261C106.38 22.5049 106.255 22.4951 106.034 22.4853C105.448 22.4525 105.455 22.5509 106.059 22.6756C106.427 22.7544 106.596 22.8726 106.521 23.0038C106.502 23.0301 106.259 23.0432 105.984 23.0235L105.473 22.9841L105.723 23.1154C105.86 23.1876 106.09 23.2467 106.228 23.2467C106.408 23.2467 106.502 23.2795 106.527 23.3517C106.602 23.5486 106.496 23.588 105.978 23.5486L105.473 23.5093L105.723 23.6405C105.86 23.7127 106.047 23.7718 106.14 23.7718C106.377 23.7718 106.502 23.8375 106.502 23.9491C106.502 24.0935 107.076 24.0344 107.437 23.8506Z" fill="white"/>
<path d="M110.014 11.8305C109.935 11.9295 109.852 12.0252 109.769 12.1127L110.014 12.1154V11.8305Z" fill="white"/>
<path d="M110.014 11.8305V12.1154L110.299 12.1185V11.4379C110.214 11.5678 110.117 11.702 110.014 11.8305Z" fill="white"/>
<path d="M103.621 17.9752C103.44 17.7771 103.271 17.5734 103.147 17.3996V17.9752H103.621Z" fill="white"/>
<path d="M103.01 17.1867C102.917 17.0226 102.817 16.8847 102.792 16.8847C102.761 16.8847 102.692 17.0882 102.643 17.3377C102.606 17.504 102.581 17.7016 102.566 17.9752H103.093H103.147V17.3996C103.092 17.3215 103.045 17.2495 103.01 17.1867Z" fill="white"/>
<path d="M105.592 6.60552C105.66 6.76962 105.729 6.90746 105.741 6.90746C105.791 6.90746 105.66 6.36265 105.561 6.15917C105.511 6.05414 105.486 5.95568 105.498 5.93599C105.517 5.92286 105.704 5.87035 105.922 5.81784C106.539 5.67999 107.443 5.63405 107.961 5.71938C108.369 5.78903 108.977 5.97163 109.177 6.08103C109.203 6.09534 109.222 6.10839 109.233 6.11978C109.264 6.14604 109.245 6.25763 109.189 6.36921C109.033 6.68429 109.071 6.69085 109.308 6.39547C109.439 6.23793 109.701 6.04101 109.944 5.90973C110.088 5.835 110.196 5.78594 110.299 5.75419V0.737305H109.183L103.871 0.737305V5.44715C104.572 5.43942 105.297 5.91064 105.592 6.60552Z" fill="white"/>
<path d="M110.299 27.7481V22.3329C109.791 22.7261 109.08 23.3792 108.341 23.7835C107.456 24.2677 106.97 24.4333 106.658 24.4333C106.408 24.4679 106.305 24.3165 106.284 24.2364C105.948 24.2177 105.445 24.1798 104.974 24.1051C104.504 24.0305 104.195 23.9182 103.871 23.7556V27.7481H110.299Z" fill="white"/>
<path d="M110.299 12.1185L120.001 12.2243V10.9771L111.093 10.9523L110.571 10.9509C110.513 11.0872 110.417 11.2584 110.299 11.4379V12.1185Z" fill="white"/>
<path d="M110.299 22.3329V27.7481H111.093V21.6108C110.85 21.8734 110.462 22.2016 110.299 22.3329Z" fill="white"/>
<path d="M109.782 19.2478C109.447 18.9624 109.027 18.5257 109.027 18.401C109.027 18.2041 109.133 18.1778 109.326 18.3157C109.42 18.3879 109.595 18.4929 109.713 18.5586C109.925 18.6767 109.925 18.6701 109.607 18.3026C109.407 18.0794 109.295 17.8956 109.32 17.8365C109.37 17.6921 109.482 17.7118 109.819 17.9218C110.312 18.2238 110.38 18.2238 110.068 17.9022C109.906 17.7315 109.775 17.5543 109.775 17.5018C109.775 17.3311 109.95 17.3311 110.162 17.4952C110.361 17.6527 110.729 17.8693 110.804 17.8693C110.823 17.8693 110.711 17.7446 110.555 17.5871C110.23 17.2589 110.212 17.1801 110.436 17.121C110.573 17.0817 110.661 17.1407 111.066 17.5477L111.093 17.5743C111.378 17.8582 111.507 17.9864 111.721 17.9752H120.001V12.2243L110.299 12.1185L110.014 12.1154L109.769 12.1127C109.445 12.454 109.227 12.6116 108.828 12.8085C108.173 13.1301 107.849 13.2089 107.238 13.2089C106.67 13.2089 106.128 13.0776 105.716 12.8479C105.554 12.756 105.405 12.6838 105.373 12.6838C105.28 12.6838 105.748 13.012 106.047 13.1564C106.209 13.2352 106.346 13.3139 106.346 13.3336C106.346 13.3533 106.041 13.5502 105.667 13.7603C105.049 14.1147 104.981 14.1738 104.918 14.3904C104.762 14.9484 104.843 15.3356 105.267 16.0774C105.561 16.5894 105.573 16.6222 105.461 16.6222C105.367 16.6222 104.831 16.3465 104.6 16.189C104.513 16.1299 104.557 16.1955 104.694 16.3399C104.837 16.4909 105.336 16.9044 105.592 17.016C105.966 17.2129 106.359 17.4433 106.159 17.5743C106.029 17.6951 105.378 17.4624 105.286 17.4099C104.923 17.1633 105.235 17.4746 105.579 17.8177L105.592 17.83C105.785 18.0269 105.847 18.1975 105.723 18.1975C105.623 18.1975 105.049 17.8825 105.006 17.8037C104.987 17.7709 104.937 17.7381 104.893 17.7381C104.856 17.7381 104.974 17.9022 105.161 18.0991C105.411 18.3616 105.479 18.4798 105.43 18.5323C105.336 18.6308 105.168 18.5651 104.787 18.2894C104.619 18.1647 104.476 18.0859 104.476 18.1122C104.476 18.1385 104.607 18.3026 104.769 18.4732C104.852 18.5894 104.993 18.8294 104.893 18.8605C104.737 18.9327 104.694 18.9196 104.382 18.6964C104.238 18.5897 104.056 18.425 103.871 18.2384V21.4927C104.102 22.1359 106.407 22.1044 106.514 22.1359C106.701 22.1909 106.669 22.3313 106.926 22.3329C107.144 22.3342 107.427 22.1267 107.587 22.0703C108.462 21.5152 110.28 20.2631 110.555 19.6951C110.442 19.6428 110.351 19.5958 110.299 19.5662C110.11 19.4785 109.897 19.3345 109.782 19.2478Z" fill="white"/>
<path d="M110.299 0.737305V5.75419C110.44 5.71066 110.571 5.69969 110.773 5.69969C110.881 5.70109 110.988 5.71239 111.093 5.73272V0.737305H110.299Z" fill="white"/>
<path d="M111.047 10.5833C110.642 10.5833 110.598 10.5964 110.63 10.7015C110.641 10.7516 110.619 10.8396 110.571 10.9509L111.093 10.9523V10.5831C111.078 10.5832 111.063 10.5833 111.047 10.5833Z" fill="white"/>
<path d="M102.2 13.6684L102.312 13.1498C102.374 12.861 102.512 12.4475 102.611 12.2243C102.633 12.1797 102.658 12.1326 102.686 12.0837C102.805 11.8781 102.976 11.6419 103.147 11.4379C103.326 11.2261 103.505 11.049 103.628 10.9771H95.1855V17.9752H102.566C102.581 17.7016 102.606 17.504 102.643 17.3377C102.692 17.0882 102.761 16.8847 102.792 16.8847C101.961 15.8345 102.051 14.3029 102.2 13.6684Z" fill="white"/>
<path d="M111.066 17.5477C110.661 17.1407 110.573 17.0817 110.436 17.121C110.212 17.1801 110.23 17.2589 110.555 17.5871C110.711 17.7446 110.823 17.8693 110.804 17.8693C110.729 17.8693 110.361 17.6527 110.162 17.4952C109.95 17.3311 109.775 17.3311 109.775 17.5018C109.775 17.5543 109.906 17.7315 110.068 17.9022C110.38 18.2238 110.312 18.2238 109.819 17.9218C109.482 17.7118 109.37 17.6921 109.32 17.8365C109.295 17.8956 109.407 18.0794 109.607 18.3026C109.925 18.6701 109.925 18.6767 109.713 18.5586C109.595 18.4929 109.42 18.3879 109.326 18.3157C109.133 18.1778 109.027 18.2041 109.027 18.401C109.027 18.5257 109.447 18.9624 109.782 19.2478C109.897 19.3345 110.11 19.4785 110.299 19.5662C110.351 19.5958 110.442 19.6428 110.555 19.6951C110.28 20.2631 108.462 21.5152 107.587 22.0703C107.427 22.1267 107.144 22.3342 106.926 22.3329C106.669 22.3313 106.701 22.1909 106.514 22.1359C106.407 22.1044 104.102 22.1359 103.871 21.4927V18.2384M111.066 17.5477L111.093 17.5743M111.066 17.5477C111.075 17.5567 111.084 17.5656 111.093 17.5743M109.769 12.1127C109.445 12.454 109.227 12.6116 108.828 12.8085C108.173 13.1301 107.849 13.2089 107.238 13.2089C106.67 13.2089 106.128 13.0776 105.716 12.8479C105.554 12.756 105.405 12.6838 105.373 12.6838C105.28 12.6838 105.748 13.012 106.047 13.1564C106.209 13.2352 106.346 13.3139 106.346 13.3336C106.346 13.3533 106.041 13.5502 105.667 13.7603C105.049 14.1147 104.981 14.1738 104.918 14.3904C104.762 14.9484 104.843 15.3356 105.267 16.0774C105.561 16.5894 105.573 16.6222 105.461 16.6222C105.367 16.6222 104.831 16.3465 104.6 16.189C104.513 16.1299 104.557 16.1955 104.694 16.3399C104.837 16.4909 105.336 16.9044 105.592 17.016C105.966 17.2129 106.359 17.4433 106.159 17.5743C106.029 17.6951 105.378 17.4624 105.286 17.4099C104.923 17.1633 105.235 17.4746 105.579 17.8177M109.769 12.1127C109.852 12.0252 109.935 11.9295 110.014 11.8305M109.769 12.1127L110.014 12.1154M105.592 17.83C105.785 18.0269 105.847 18.1975 105.723 18.1975C105.623 18.1975 105.049 17.8825 105.006 17.8037C104.987 17.7709 104.937 17.7381 104.893 17.7381C104.856 17.7381 104.974 17.9022 105.161 18.0991C105.411 18.3616 105.479 18.4798 105.43 18.5323C105.336 18.6308 105.168 18.5651 104.787 18.2894C104.619 18.1647 104.476 18.0859 104.476 18.1122C104.476 18.1385 104.607 18.3026 104.769 18.4732C104.852 18.5894 104.993 18.8294 104.893 18.8605C104.737 18.9327 104.694 18.9196 104.382 18.6964C104.238 18.5897 104.056 18.425 103.871 18.2384M105.592 17.83L105.579 17.8177M105.592 17.83C105.588 17.8259 105.584 17.8218 105.579 17.8177M102.792 16.8847C102.817 16.8847 102.917 17.0226 103.01 17.1867C103.045 17.2495 103.092 17.3215 103.147 17.3996M102.792 16.8847C102.761 16.8847 102.692 17.0882 102.643 17.3377C102.606 17.504 102.581 17.7016 102.566 17.9752M102.792 16.8847C101.961 15.8345 102.051 14.3029 102.2 13.6684L102.312 13.1498C102.374 12.861 102.512 12.4475 102.611 12.2243C102.633 12.1797 102.658 12.1326 102.686 12.0837M120.001 12.2243V17.9752H111.721C111.507 17.9864 111.378 17.8582 111.093 17.5743M120.001 12.2243L110.299 12.1185M120.001 12.2243V10.9771L111.093 10.9523M102.566 17.9752H103.093H103.147M102.566 17.9752H95.1855V10.9771H103.628C103.505 11.049 103.326 11.2261 103.147 11.4379C102.976 11.6419 102.805 11.8781 102.686 12.0837M102.686 12.0837L102.543 12.0841M110.299 22.3329V27.7481M110.299 22.3329C109.791 22.7261 109.08 23.3792 108.341 23.7835C107.456 24.2677 106.97 24.4333 106.658 24.4333C106.408 24.4679 106.305 24.3165 106.284 24.2364C105.948 24.2177 105.445 24.1798 104.974 24.1051C104.504 24.0305 104.195 23.9182 103.871 23.7556V27.7481H110.299M110.299 22.3329C110.462 22.2016 110.85 21.8734 111.093 21.6108V27.7481H110.299M110.014 11.8305V12.1154M110.014 11.8305C110.117 11.702 110.214 11.5678 110.299 11.4379M110.014 12.1154L110.299 12.1185M110.299 12.1185V11.4379M110.299 11.4379C110.417 11.2584 110.513 11.0872 110.571 10.9509M110.299 0.737305V5.75419M110.299 0.737305H109.183L103.871 0.737305V5.44715C104.572 5.43942 105.297 5.91064 105.592 6.60552C105.66 6.76962 105.729 6.90746 105.741 6.90746C105.791 6.90746 105.66 6.36265 105.561 6.15917C105.511 6.05414 105.486 5.95568 105.498 5.93599C105.517 5.92286 105.704 5.87035 105.922 5.81784C106.539 5.67999 107.443 5.63405 107.961 5.71938C108.369 5.78903 108.977 5.97163 109.177 6.08103C109.203 6.09534 109.222 6.10839 109.233 6.11978C109.264 6.14604 109.245 6.25763 109.189 6.36921C109.033 6.68429 109.071 6.69085 109.308 6.39547C109.439 6.23793 109.701 6.04101 109.944 5.90973C110.088 5.835 110.196 5.78594 110.299 5.75419M110.299 0.737305H111.093V5.73272C110.988 5.71239 110.881 5.70109 110.773 5.69969C110.571 5.69969 110.44 5.71066 110.299 5.75419M103.621 17.9752C103.44 17.7771 103.271 17.5734 103.147 17.3996M103.621 17.9752H103.147M103.621 17.9752C103.703 18.0652 103.787 18.154 103.871 18.2384M103.147 6.14122C103.528 5.96182 104.066 5.96939 104.345 6.17886C104.644 6.40203 105.031 7.10438 104.856 7.10438C104.819 7.10438 104.787 7.05843 104.787 7.00592C104.787 6.83526 104.351 6.38891 104.114 6.32327C103.799 6.22863 103.453 6.31324 103.147 6.52871M103.147 6.14122C103.111 6.15858 103.075 6.1777 103.042 6.19855C102.512 6.52675 102.219 6.98623 102.094 7.67545C102.038 7.99052 102.044 8.1218 102.131 8.43687C102.231 8.79133 102.543 9.2705 102.686 9.2705C102.717 9.2705 102.705 9.21799 102.655 9.15891C102.35 8.79133 102.25 7.9577 102.449 7.44571C102.607 7.05087 102.859 6.73171 103.147 6.52871M103.147 6.14122V6.52871M103.147 17.3996V17.9752M110.571 10.9509C110.619 10.8396 110.641 10.7516 110.63 10.7015C110.598 10.5964 110.642 10.5833 111.047 10.5833C111.063 10.5833 111.078 10.5832 111.093 10.5831V10.9523M110.571 10.9509L111.093 10.9523M107.437 23.8506L107.718 23.7062L107.375 23.739C107.188 23.7587 106.951 23.7915 106.845 23.8112C106.745 23.8243 106.62 23.8112 106.571 23.7784C106.421 23.6799 106.589 23.5355 106.907 23.4896C107.057 23.4633 107.281 23.4042 107.406 23.3517C107.687 23.227 107.699 23.1023 107.425 23.1876C107.119 23.273 106.483 23.2664 106.514 23.1679C106.552 23.0629 106.664 23.0104 107.088 22.9119C107.288 22.866 107.456 22.7807 107.531 22.7085L107.718 22.5837L107.531 22.6231C107.431 22.6428 107.157 22.6822 106.926 22.7085C106.663 22.7384 106.54 22.7347 106.553 22.6231C106.559 22.5672 106.516 22.5474 106.448 22.5261C106.38 22.5049 106.255 22.4951 106.034 22.4853C105.448 22.4525 105.455 22.5509 106.059 22.6756C106.427 22.7544 106.596 22.8726 106.521 23.0038C106.502 23.0301 106.259 23.0432 105.984 23.0235L105.473 22.9841L105.723 23.1154C105.86 23.1876 106.09 23.2467 106.228 23.2467C106.408 23.2467 106.502 23.2795 106.527 23.3517C106.602 23.5486 106.496 23.588 105.978 23.5486L105.473 23.5093L105.723 23.6405C105.86 23.7127 106.047 23.7718 106.14 23.7718C106.377 23.7718 106.502 23.8375 106.502 23.9491C106.502 24.0935 107.076 24.0344 107.437 23.8506ZM108.03 12.5C108.329 12.1915 108.435 11.7057 108.379 10.9509C108.323 10.1369 107.992 9.48711 107.556 9.33614C106.932 9.11953 106.346 10.0319 106.346 11.2266C106.346 11.8961 106.433 12.2046 106.72 12.5C106.945 12.7363 106.97 12.7494 107.375 12.7494C107.78 12.7494 107.805 12.7363 108.03 12.5ZM105.966 9.98597C106.196 9.90064 106.302 9.67747 106.246 9.41491C106.184 9.15235 106.103 9.07358 105.885 9.07358C105.442 9.07358 105.236 9.63808 105.573 9.92033C105.766 10.0844 105.723 10.0779 105.966 9.98597ZM109.183 9.82844C109.426 9.57901 109.376 9.19829 109.083 9.06701C108.728 8.91604 108.341 9.2705 108.466 9.63808C108.603 10.0188 108.927 10.1041 109.183 9.82844ZM112.506 8.82415C112.718 8.08898 112.488 7.24222 111.939 6.7368C111.371 6.21168 110.592 6.16573 110.187 6.63834C110.05 6.79587 110.118 6.82213 110.299 6.67772C110.636 6.4086 111.259 6.53331 111.721 6.95997C112.257 7.45884 112.488 8.47626 112.201 9.11296C111.989 9.57901 111.995 9.59214 112.226 9.32301C112.338 9.18517 112.469 8.96199 112.506 8.82415Z" stroke="white" stroke-width="0.399513" stroke-linejoin="round"/>
</svg>
