<svg width="512" height="256" viewBox="0 0 512 256" fill="none" xmlns="http://www.w3.org/2000/svg">
<path d="M41.936 108.344H63.056V195H41.936V108.344ZM109.52 108.344C108.325 114.403 106.917 119.608 105.296 123.96C103.76 128.312 102.053 132.109 100.176 135.352C98.2987 138.509 96.2933 141.197 94.16 143.416C92.0267 145.635 89.808 147.64 87.504 149.432L117.456 195H93.904L64.464 147.512V145.976C68.2187 144.184 71.376 142.093 73.936 139.704C76.5813 137.229 78.8 134.456 80.592 131.384C82.384 128.227 83.8773 124.771 85.072 121.016C86.352 117.176 87.504 112.952 88.528 108.344H109.52ZM154.434 107.192C161.175 107.192 166.978 108.216 171.842 110.264C176.706 112.312 180.717 115.213 183.874 118.968C187.031 122.723 189.335 127.331 190.786 132.792C192.322 138.168 193.09 144.227 193.09 150.968C193.09 157.624 192.237 163.725 190.53 169.272C188.909 174.733 186.434 179.427 183.106 183.352C179.778 187.277 175.597 190.349 170.562 192.568C165.527 194.701 159.597 195.768 152.77 195.768C146.029 195.768 140.183 194.829 135.234 192.952C130.37 190.989 126.359 188.173 123.202 184.504C120.045 180.749 117.698 176.227 116.162 170.936C114.711 165.645 113.986 159.587 113.986 152.76C113.986 146.104 114.797 140.003 116.418 134.456C118.125 128.824 120.642 124.003 123.97 119.992C127.298 115.896 131.479 112.739 136.514 110.52C141.634 108.301 147.607 107.192 154.434 107.192ZM152.642 122.168C147.095 122.168 143.042 124.771 140.482 129.976C138.007 135.096 136.77 142.221 136.77 151.352C136.77 155.704 137.026 159.672 137.538 163.256C138.135 166.84 139.074 169.955 140.354 172.6C141.719 175.16 143.554 177.165 145.858 178.616C148.162 180.067 151.063 180.792 154.562 180.792C160.109 180.792 164.119 178.317 166.594 173.368C169.069 168.419 170.306 161.379 170.306 152.248C170.306 147.896 170.007 143.885 169.41 140.216C168.898 136.547 167.959 133.389 166.594 130.744C165.314 128.013 163.522 125.923 161.218 124.472C158.914 122.936 156.055 122.168 152.642 122.168ZM227.518 108.344H246.334L278.078 195H256.702L250.302 174.136H222.27L215.614 195H194.622L227.518 108.344ZM245.566 158.52C244.713 156.045 243.817 153.485 242.878 150.84C242.025 148.109 241.171 145.464 240.318 142.904C239.55 140.344 238.825 137.955 238.142 135.736C237.459 133.432 236.862 131.512 236.35 129.976C235.838 131.597 235.241 133.56 234.558 135.864C233.875 138.083 233.107 140.472 232.254 143.032C231.486 145.592 230.633 148.195 229.694 150.84C228.841 153.485 227.987 156.045 227.134 158.52H245.566ZM285.811 108.344H306.931V179.512H337.395V195H285.811V108.344ZM373.143 108.344H391.959L423.703 195H402.327L395.927 174.136H367.895L361.239 195H340.247L373.143 108.344ZM391.191 158.52C390.338 156.045 389.442 153.485 388.503 150.84C387.65 148.109 386.796 145.464 385.943 142.904C385.175 140.344 384.45 137.955 383.767 135.736C383.084 133.432 382.487 131.512 381.975 129.976C381.463 131.597 380.866 133.56 380.183 135.864C379.5 138.083 378.732 140.472 377.879 143.032C377.111 145.592 376.258 148.195 375.319 150.84C374.466 153.485 373.612 156.045 372.759 158.52H391.191Z" fill="white"/>
<path d="M455.062 71.548C456.228 70.4058 456.641 68.6075 456.423 65.8129C456.204 62.7995 454.916 60.3937 453.215 59.8348C450.785 59.0328 448.5 62.4107 448.5 66.8335C448.5 69.3123 448.841 70.4544 449.958 71.548C450.833 72.4228 450.93 72.4714 452.51 72.4714C454.09 72.4714 454.187 72.4228 455.062 71.548Z" fill="white"/>
<path d="M459.558 61.6574C460.505 60.7339 460.311 59.3244 459.169 58.8384C457.784 58.2795 456.277 59.5917 456.763 60.9526C457.298 62.3621 458.561 62.678 459.558 61.6574Z" fill="white"/>
<path d="M472.511 57.9392C473.337 55.2175 472.438 52.0826 470.299 50.2114C468.088 48.2673 465.05 48.0972 463.47 49.8469C462.936 50.4301 463.203 50.5273 463.908 49.9927C465.22 48.9964 467.65 49.4581 469.448 51.0377C471.538 52.8846 472.438 56.6513 471.32 59.0085C470.493 60.7339 470.518 60.7825 471.417 59.7862C471.854 59.2758 472.365 58.4496 472.511 57.9392Z" fill="white"/>
<path d="M434.114 59.1786C432.923 57.8177 432.534 54.7315 433.312 52.836C433.925 51.3742 434.909 50.1926 436.033 49.441C437.225 48.6433 438.574 48.3301 439.8 48.6804C440.724 48.9235 442.425 50.5759 442.425 51.2078C442.425 51.4022 442.546 51.5723 442.692 51.5723C443.373 51.5723 441.866 48.9721 440.699 48.1458C439.614 47.3703 437.518 47.3423 436.033 48.0065C435.889 48.0708 435.751 48.1415 435.62 48.2187C433.555 49.4338 432.412 51.1349 431.926 53.6865C431.708 54.853 431.732 55.339 432.072 56.5055C432.461 57.8177 433.676 59.5917 434.235 59.5917C434.357 59.5917 434.308 59.3973 434.114 59.1786Z" fill="white"/>
<path d="M447.018 62.2406C447.917 61.9247 448.33 61.0984 448.111 60.1264C447.868 59.1543 447.553 58.8627 446.702 58.8627C444.977 58.8627 444.175 60.9526 445.487 61.9976C446.24 62.6051 446.07 62.5808 447.018 62.2406Z" fill="white"/>
<path d="M452.753 113.57L453.847 113.036L452.51 113.157C451.781 113.23 450.858 113.352 450.444 113.425C450.056 113.473 449.57 113.425 449.375 113.303C448.792 112.939 449.448 112.404 450.687 112.234C451.271 112.137 452.146 111.918 452.632 111.724C453.725 111.262 453.774 110.8 452.705 111.116C451.514 111.432 449.035 111.408 449.156 111.043C449.302 110.654 449.74 110.46 451.392 110.095C452.17 109.925 452.826 109.609 453.118 109.342L453.847 108.88L453.118 109.026C452.729 109.099 451.66 109.245 450.76 109.342C449.735 109.453 449.257 109.439 449.306 109.026C449.33 108.819 449.162 108.746 448.896 108.667C448.631 108.588 448.145 108.552 447.285 108.516C445.001 108.394 445.025 108.759 447.382 109.22C448.816 109.512 449.472 109.949 449.181 110.436C449.108 110.533 448.16 110.581 447.091 110.508L445.098 110.363L446.07 110.849C446.605 111.116 447.504 111.335 448.039 111.335C448.743 111.335 449.108 111.456 449.205 111.724C449.497 112.453 449.084 112.598 447.066 112.453L445.098 112.307L446.07 112.793C446.605 113.06 447.334 113.279 447.698 113.279C448.622 113.279 449.108 113.522 449.108 113.935C449.108 114.47 451.344 114.251 452.753 113.57Z" fill="white"/>
<path d="M462.796 69.0693C462.488 69.4361 462.166 69.7902 461.842 70.1142L462.796 70.1241V69.0693Z" fill="white"/>
<path d="M462.796 69.0693V70.1241L463.908 70.1356V67.6161C463.575 68.097 463.196 68.5938 462.796 69.0693Z" fill="white"/>
<path d="M437.878 91.8183C437.174 91.0851 436.516 90.331 436.033 89.6874V91.8183H437.878Z" fill="white"/>
<path d="M435.499 88.8992C435.134 88.2916 434.745 87.7813 434.648 87.7813C434.527 87.7813 434.259 88.5346 434.065 89.4581C433.923 90.074 433.827 90.8054 433.766 91.8183H435.822H436.033V89.6874C435.816 89.3984 435.634 89.1317 435.499 88.8992Z" fill="white"/>
<path d="M445.56 49.7254C445.827 50.3329 446.094 50.8433 446.143 50.8433C446.337 50.8433 445.827 48.8262 445.438 48.0729C445.244 47.6841 445.147 47.3196 445.195 47.2467C445.268 47.1981 445.997 47.0036 446.848 46.8092C449.254 46.2989 452.777 46.1288 454.794 46.4447C456.385 46.7026 458.754 47.3786 459.533 47.7836C459.635 47.8366 459.71 47.8849 459.752 47.9271C459.874 48.0243 459.801 48.4374 459.582 48.8506C458.974 50.017 459.12 50.0413 460.044 48.9478C460.554 48.3645 461.575 47.6355 462.522 47.1495C463.086 46.8728 463.507 46.6911 463.908 46.5736V28H459.558H438.852V45.4369C441.585 45.4083 444.409 47.1528 445.56 49.7254Z" fill="white"/>
<path d="M463.908 128V107.951C461.926 109.407 459.157 111.825 456.277 113.322C452.827 115.115 450.93 115.728 449.715 115.728C448.743 115.856 448.338 115.295 448.257 114.999C446.947 114.929 444.987 114.789 443.154 114.513C441.321 114.236 440.115 113.821 438.852 113.219V128H463.908Z" fill="white"/>
<path d="M463.908 70.1356L501.721 70.5273V65.9101L467.001 65.8183L464.969 65.8129C464.742 66.3175 464.368 66.9515 463.908 67.6161V70.1356Z" fill="white"/>
<path d="M463.908 107.951V128H467.001V105.278C466.054 106.25 464.544 107.465 463.908 107.951Z" fill="white"/>
<path d="M461.891 96.5298C460.586 95.4731 458.95 93.8566 458.95 93.3949C458.95 92.6659 459.363 92.5686 460.117 93.079C460.481 93.3463 461.162 93.7351 461.623 93.9781C462.45 94.4156 462.45 94.3913 461.21 93.0304C460.432 92.2041 459.995 91.5237 460.092 91.305C460.287 90.7704 460.724 90.8433 462.036 91.6209C463.956 92.7388 464.224 92.7388 463.008 91.548C462.377 90.9162 461.866 90.26 461.866 90.0656C461.866 89.4338 462.547 89.4338 463.373 90.0413C464.151 90.6245 465.584 91.4265 465.876 91.4265C465.949 91.4265 465.512 90.9648 464.904 90.3815C463.64 89.1665 463.567 88.8749 464.442 88.6561C464.977 88.5103 465.317 88.729 466.897 90.2357L467.001 90.3342C468.113 91.3852 468.615 91.8599 469.448 91.8183H501.721V70.5273L463.908 70.1356L462.796 70.1241L461.842 70.1142C460.578 71.3779 459.728 71.9611 458.172 72.6902C455.621 73.8809 454.357 74.1725 451.975 74.1725C449.764 74.1725 447.65 73.6865 446.046 72.836C445.414 72.4957 444.831 72.2284 444.709 72.2284C444.345 72.2284 446.167 73.4435 447.334 73.9781C447.966 74.2697 448.5 74.5614 448.5 74.6343C448.5 74.7072 447.31 75.4362 445.851 76.2139C443.446 77.5261 443.178 77.7448 442.935 78.5468C442.328 80.6124 442.644 82.0462 444.296 84.7922C445.438 86.6877 445.487 86.8092 445.049 86.8092C444.685 86.8092 442.595 85.7886 441.696 85.2054C441.356 84.9866 441.526 85.2297 442.06 85.7643C442.619 86.3232 444.563 87.8542 445.56 88.2673C447.018 88.9964 448.549 89.8491 447.771 90.3342C447.266 90.7813 444.725 89.9198 444.369 89.7254C442.952 88.8128 444.17 89.9651 445.512 91.2355L445.56 91.2807C446.313 92.0097 446.556 92.6416 446.07 92.6416C445.681 92.6416 443.446 91.4751 443.275 91.1835C443.202 91.062 443.008 90.9405 442.838 90.9405C442.692 90.9405 443.154 91.548 443.883 92.277C444.855 93.2491 445.122 93.6865 444.928 93.8809C444.563 94.2455 443.907 94.0024 442.425 92.9818C441.769 92.5201 441.21 92.2284 441.21 92.3256C441.21 92.4228 441.72 93.0304 442.352 93.6622C442.676 94.0922 443.227 94.9809 442.838 95.096C442.23 95.3633 442.06 95.3147 440.845 94.4885C440.282 94.0936 439.574 93.4839 438.852 92.7927V104.841C439.752 107.222 448.738 107.105 449.156 107.222C449.884 107.426 449.759 107.946 450.76 107.951C451.609 107.956 452.712 107.188 453.336 106.979C456.747 104.924 463.835 100.289 464.904 98.186C464.463 97.9921 464.111 97.8181 463.908 97.7087C463.171 97.3838 462.34 96.8508 461.891 96.5298Z" fill="white"/>
<path d="M463.908 28V46.5736C464.457 46.4124 464.968 46.3718 465.755 46.3718C466.177 46.377 466.593 46.4188 467.001 46.4941V28H463.908Z" fill="white"/>
<path d="M466.824 64.452C465.244 64.452 465.074 64.5006 465.196 64.8894C465.24 65.0751 465.154 65.4009 464.969 65.8129L467.001 65.8183V64.4511C466.943 64.4517 466.884 64.452 466.824 64.452Z" fill="white"/>
<path d="M432.34 75.8736L432.777 73.9538C433.02 72.8846 433.555 71.3536 433.943 70.5273C434.027 70.3623 434.125 70.1877 434.235 70.0067C434.696 69.2457 435.363 68.3712 436.033 67.6161C436.729 66.8318 437.428 66.1762 437.905 65.9101H405V91.8183H433.766C433.827 90.8054 433.923 90.074 434.065 89.4581C434.259 88.5346 434.527 87.7813 434.648 87.7813C431.41 83.8931 431.76 78.2228 432.34 75.8736Z" fill="white"/>
<path d="M466.897 90.2357C465.317 88.729 464.977 88.5103 464.442 88.6561C463.567 88.8749 463.64 89.1665 464.904 90.3815C465.512 90.9648 465.949 91.4265 465.876 91.4265C465.584 91.4265 464.151 90.6245 463.373 90.0413C462.547 89.4338 461.866 89.4338 461.866 90.0656C461.866 90.26 462.377 90.9162 463.008 91.548C464.224 92.7388 463.956 92.7388 462.036 91.6209C460.724 90.8433 460.287 90.7704 460.092 91.305C459.995 91.5237 460.432 92.2041 461.21 93.0304C462.45 94.3913 462.45 94.4156 461.623 93.9781C461.162 93.7351 460.481 93.3463 460.117 93.079C459.363 92.5686 458.95 92.6659 458.95 93.3949C458.95 93.8566 460.586 95.4731 461.891 96.5298C462.34 96.8508 463.171 97.3838 463.908 97.7087C464.111 97.8181 464.463 97.9921 464.904 98.186C463.835 100.289 456.747 104.924 453.336 106.979C452.712 107.188 451.609 107.956 450.76 107.951C449.759 107.946 449.884 107.426 449.156 107.222C448.738 107.105 439.752 107.222 438.852 104.841V92.7927M466.897 90.2357L467.001 90.3342M466.897 90.2357C466.932 90.2691 466.967 90.3019 467.001 90.3342M461.842 70.1142C460.578 71.3779 459.728 71.9611 458.172 72.6902C455.621 73.8809 454.357 74.1725 451.975 74.1725C449.764 74.1725 447.65 73.6865 446.046 72.836C445.414 72.4957 444.831 72.2284 444.709 72.2284C444.345 72.2284 446.167 73.4435 447.334 73.9781C447.966 74.2697 448.5 74.5614 448.5 74.6343C448.5 74.7072 447.31 75.4362 445.851 76.2139C443.446 77.5261 443.178 77.7448 442.935 78.5468C442.328 80.6124 442.644 82.0462 444.296 84.7922C445.438 86.6877 445.487 86.8092 445.049 86.8092C444.685 86.8092 442.595 85.7886 441.696 85.2054C441.356 84.9866 441.526 85.2297 442.06 85.7643C442.619 86.3232 444.563 87.8542 445.56 88.2673C447.018 88.9964 448.549 89.8491 447.771 90.3342C447.266 90.7813 444.725 89.9198 444.369 89.7254C442.952 88.8128 444.17 89.9651 445.512 91.2355M461.842 70.1142C462.166 69.7902 462.488 69.4361 462.796 69.0693M461.842 70.1142L462.796 70.1241M445.56 91.2807C446.313 92.0097 446.556 92.6416 446.07 92.6416C445.681 92.6416 443.446 91.4751 443.275 91.1835C443.202 91.062 443.008 90.9405 442.838 90.9405C442.692 90.9405 443.154 91.548 443.883 92.277C444.855 93.2491 445.122 93.6865 444.928 93.8809C444.563 94.2455 443.907 94.0024 442.425 92.9818C441.769 92.5201 441.21 92.2284 441.21 92.3256C441.21 92.4228 441.72 93.0304 442.352 93.6622C442.676 94.0922 443.227 94.9809 442.838 95.096C442.23 95.3633 442.06 95.3147 440.845 94.4885C440.282 94.0936 439.574 93.4839 438.852 92.7927M445.56 91.2807L445.512 91.2355M445.56 91.2807C445.544 91.2656 445.528 91.2505 445.512 91.2355M434.648 87.7813C434.745 87.7813 435.134 88.2916 435.499 88.8992C435.634 89.1317 435.816 89.3984 436.033 89.6874M434.648 87.7813C434.527 87.7813 434.259 88.5346 434.065 89.4581C433.923 90.074 433.827 90.8054 433.766 91.8183M434.648 87.7813C431.41 83.8931 431.76 78.2228 432.34 75.8736L432.777 73.9538C433.02 72.8846 433.555 71.3536 433.943 70.5273C434.027 70.3623 434.125 70.1877 434.235 70.0067M501.721 70.5273V91.8183H469.448C468.615 91.8599 468.113 91.3852 467.001 90.3342M501.721 70.5273L463.908 70.1356M501.721 70.5273V65.9101L467.001 65.8183M433.766 91.8183H435.822H436.033M433.766 91.8183H405V65.9101H437.905C437.428 66.1762 436.729 66.8318 436.033 67.6161C435.363 68.3712 434.696 69.2457 434.235 70.0067M434.235 70.0067L433.676 70.0083M463.908 107.951V128M463.908 107.951C461.926 109.407 459.157 111.825 456.277 113.322C452.827 115.115 450.93 115.728 449.715 115.728C448.743 115.856 448.338 115.295 448.257 114.999C446.947 114.929 444.987 114.789 443.154 114.513C441.321 114.236 440.115 113.821 438.852 113.219V128H463.908M463.908 107.951C464.544 107.465 466.054 106.25 467.001 105.278V128H463.908M462.796 69.0693V70.1241M462.796 69.0693C463.196 68.5938 463.575 68.097 463.908 67.6161M462.796 70.1241L463.908 70.1356M463.908 70.1356V67.6161M463.908 67.6161C464.368 66.9515 464.742 66.3175 464.969 65.8129M463.908 28V46.5736M463.908 28H459.558H438.852V45.4369C441.585 45.4083 444.409 47.1528 445.56 49.7254C445.827 50.3329 446.094 50.8433 446.143 50.8433C446.337 50.8433 445.827 48.8262 445.438 48.0729C445.244 47.6841 445.147 47.3196 445.195 47.2467C445.268 47.1981 445.997 47.0036 446.848 46.8092C449.254 46.2989 452.777 46.1288 454.794 46.4447C456.385 46.7026 458.754 47.3786 459.533 47.7836C459.635 47.8366 459.71 47.8849 459.752 47.9271C459.874 48.0243 459.801 48.4374 459.582 48.8506C458.974 50.017 459.12 50.0413 460.044 48.9478C460.554 48.3645 461.575 47.6355 462.522 47.1495C463.086 46.8728 463.507 46.6911 463.908 46.5736M463.908 28H467.001V46.4941C466.593 46.4188 466.177 46.377 465.755 46.3718C464.968 46.3718 464.457 46.4124 463.908 46.5736M437.878 91.8183C437.174 91.0851 436.516 90.331 436.033 89.6874M437.878 91.8183H436.033M437.878 91.8183C438.197 92.1515 438.526 92.4804 438.852 92.7927M436.033 48.0065C437.518 47.3423 439.614 47.3703 440.699 48.1458C441.866 48.9721 443.373 51.5723 442.692 51.5723C442.546 51.5723 442.425 51.4022 442.425 51.2078C442.425 50.5759 440.724 48.9235 439.8 48.6804C438.574 48.3301 437.225 48.6433 436.033 49.441M436.033 48.0065C435.889 48.0708 435.751 48.1415 435.62 48.2187C433.555 49.4338 432.412 51.1349 431.926 53.6865C431.708 54.853 431.732 55.339 432.072 56.5055C432.461 57.8177 433.676 59.5917 434.235 59.5917C434.357 59.5917 434.308 59.3973 434.114 59.1786C432.923 57.8177 432.534 54.7315 433.312 52.836C433.925 51.3742 434.909 50.1926 436.033 49.441M436.033 48.0065V49.441M436.033 89.6874V91.8183M464.969 65.8129C465.154 65.4009 465.24 65.0751 465.196 64.8894C465.074 64.5006 465.244 64.452 466.824 64.452C466.884 64.452 466.943 64.4517 467.001 64.4511V65.8183M464.969 65.8129L467.001 65.8183M452.753 113.57L453.847 113.036L452.51 113.157C451.781 113.23 450.858 113.352 450.444 113.425C450.056 113.473 449.57 113.425 449.375 113.303C448.792 112.939 449.448 112.404 450.687 112.234C451.271 112.137 452.146 111.918 452.632 111.724C453.725 111.262 453.774 110.8 452.705 111.116C451.514 111.432 449.035 111.408 449.156 111.043C449.302 110.654 449.74 110.46 451.392 110.095C452.17 109.925 452.826 109.609 453.118 109.342L453.847 108.88L453.118 109.026C452.729 109.099 451.66 109.245 450.76 109.342C449.735 109.453 449.257 109.439 449.306 109.026C449.33 108.819 449.162 108.746 448.896 108.667C448.631 108.588 448.145 108.552 447.285 108.516C445.001 108.394 445.025 108.759 447.382 109.22C448.816 109.512 449.472 109.949 449.181 110.436C449.108 110.533 448.16 110.581 447.091 110.508L445.098 110.363L446.07 110.849C446.605 111.116 447.504 111.335 448.039 111.335C448.743 111.335 449.108 111.456 449.205 111.724C449.497 112.453 449.084 112.598 447.066 112.453L445.098 112.307L446.07 112.793C446.605 113.06 447.334 113.279 447.698 113.279C448.622 113.279 449.108 113.522 449.108 113.935C449.108 114.47 451.344 114.251 452.753 113.57ZM455.062 71.548C456.228 70.4058 456.641 68.6075 456.423 65.8129C456.204 62.7995 454.916 60.3937 453.215 59.8348C450.785 59.0328 448.5 62.4107 448.5 66.8335C448.5 69.3123 448.841 70.4544 449.958 71.548C450.833 72.4228 450.93 72.4714 452.51 72.4714C454.09 72.4714 454.187 72.4228 455.062 71.548ZM447.018 62.2406C447.917 61.9247 448.33 61.0984 448.111 60.1264C447.868 59.1543 447.553 58.8627 446.702 58.8627C444.977 58.8627 444.175 60.9526 445.487 61.9976C446.24 62.6051 446.07 62.5808 447.018 62.2406ZM459.558 61.6574C460.505 60.7339 460.311 59.3244 459.169 58.8384C457.784 58.2795 456.277 59.5917 456.763 60.9526C457.298 62.3621 458.561 62.678 459.558 61.6574ZM472.511 57.9392C473.337 55.2175 472.438 52.0826 470.299 50.2114C468.088 48.2673 465.05 48.0972 463.47 49.8469C462.936 50.4301 463.203 50.5273 463.908 49.9927C465.22 48.9964 467.65 49.4581 469.448 51.0377C471.538 52.8846 472.438 56.6513 471.32 59.0085C470.493 60.7339 470.518 60.7825 471.417 59.7862C471.854 59.2758 472.365 58.4496 472.511 57.9392Z" stroke="white" stroke-width="0.5" stroke-linejoin="round"/>
</svg>
