<svg width="469" height="199" viewBox="0 0 469 199" fill="none" xmlns="http://www.w3.org/2000/svg">
<path d="M7.936 81.3694H29.056V168.025H7.936V81.3694ZM75.52 81.3694C74.3253 87.4281 72.9173 92.6334 71.296 96.9854C69.76 101.337 68.0533 105.135 66.176 108.377C64.2987 111.535 62.2933 114.223 60.16 116.441C58.0267 118.66 55.808 120.665 53.504 122.457L83.456 168.025H59.904L30.464 120.537V119.001C34.2187 117.209 37.376 115.119 39.936 112.729C42.5813 110.255 44.8 107.481 46.592 104.409C48.384 101.252 49.8773 97.7961 51.072 94.0414C52.352 90.2014 53.504 85.9774 54.528 81.3694H75.52ZM120.434 80.2174C127.175 80.2174 132.978 81.2414 137.842 83.2894C142.706 85.3374 146.717 88.2387 149.874 91.9934C153.031 95.7481 155.335 100.356 156.786 105.817C158.322 111.193 159.09 117.252 159.09 123.993C159.09 130.649 158.237 136.751 156.53 142.297C154.909 147.759 152.434 152.452 149.106 156.377C145.778 160.303 141.597 163.375 136.562 165.593C131.527 167.727 125.597 168.793 118.77 168.793C112.029 168.793 106.183 167.855 101.234 165.977C96.37 164.015 92.3593 161.199 89.202 157.529C86.0447 153.775 83.698 149.252 82.162 143.961C80.7113 138.671 79.986 132.612 79.986 125.785C79.986 119.129 80.7967 113.028 82.418 107.481C84.1247 101.849 86.642 97.0281 89.97 93.0174C93.298 88.9214 97.4793 85.7641 102.514 83.5454C107.634 81.3267 113.607 80.2174 120.434 80.2174ZM118.642 95.1934C113.095 95.1934 109.042 97.7961 106.482 103.001C104.007 108.121 102.77 115.247 102.77 124.377C102.77 128.729 103.026 132.697 103.538 136.281C104.135 139.865 105.074 142.98 106.354 145.625C107.719 148.185 109.554 150.191 111.858 151.641C114.162 153.092 117.063 153.817 120.562 153.817C126.109 153.817 130.119 151.343 132.594 146.393C135.069 141.444 136.306 134.404 136.306 125.273C136.306 120.921 136.007 116.911 135.41 113.241C134.898 109.572 133.959 106.415 132.594 103.769C131.314 101.039 129.522 98.9481 127.218 97.4974C124.914 95.9614 122.055 95.1934 118.642 95.1934ZM193.518 81.3694H212.334L244.078 168.025H222.702L216.302 147.161H188.27L181.614 168.025H160.622L193.518 81.3694ZM211.566 131.545C210.713 129.071 209.817 126.511 208.878 123.865C208.025 121.135 207.171 118.489 206.318 115.929C205.55 113.369 204.825 110.98 204.142 108.761C203.459 106.457 202.862 104.537 202.35 103.001C201.838 104.623 201.241 106.585 200.558 108.889C199.875 111.108 199.107 113.497 198.254 116.057C197.486 118.617 196.633 121.22 195.694 123.865C194.841 126.511 193.987 129.071 193.134 131.545H211.566ZM251.811 81.3694H272.931V152.537H303.395V168.025H251.811V81.3694ZM339.143 81.3694H357.959L389.703 168.025H368.327L361.927 147.161H333.895L327.239 168.025H306.247L339.143 81.3694ZM357.191 131.545C356.338 129.071 355.442 126.511 354.503 123.865C353.65 121.135 352.796 118.489 351.943 115.929C351.175 113.369 350.45 110.98 349.767 108.761C349.084 106.457 348.487 104.537 347.975 103.001C347.463 104.623 346.866 106.585 346.183 108.889C345.5 111.108 344.732 113.497 343.879 116.057C343.111 118.617 342.258 121.22 341.319 123.865C340.466 126.511 339.612 129.071 338.759 131.545H357.191Z" fill="#07617D"/>
<path d="M421.313 44.5739C422.48 43.4311 422.893 41.6317 422.675 38.8354C422.456 35.8203 421.167 33.413 419.465 32.8537C417.033 32.0513 414.747 35.4312 414.747 39.8567C414.747 42.3369 415.088 43.4797 416.206 44.5739C417.082 45.4493 417.179 45.4979 418.76 45.4979C420.34 45.4979 420.437 45.4493 421.313 44.5739Z" fill="#07617D"/>
<path d="M425.811 34.6774C426.76 33.7534 426.565 32.3431 425.422 31.8568C424.036 31.2975 422.529 32.6106 423.015 33.9722C423.55 35.3826 424.814 35.6987 425.811 34.6774Z" fill="#07617D"/>
<path d="M438.772 30.9571C439.599 28.2337 438.699 25.097 436.559 23.2247C434.346 21.2794 431.307 21.1092 429.726 22.8599C429.191 23.4435 429.459 23.5408 430.164 23.0058C431.477 22.0089 433.909 22.4709 435.708 24.0514C437.799 25.8994 438.699 29.6683 437.58 32.027C436.754 33.7534 436.778 33.802 437.678 32.8051C438.115 32.2945 438.626 31.4677 438.772 30.9571Z" fill="#07617D"/>
<path d="M400.352 32.1972C399.161 30.8355 398.772 27.7474 399.55 25.8508C400.163 24.3881 401.148 23.2058 402.273 22.4538C403.466 21.6556 404.815 21.3422 406.042 21.6928C406.966 21.9359 408.668 23.5894 408.668 24.2216C408.668 24.4161 408.79 24.5863 408.936 24.5863C409.617 24.5863 408.109 21.9845 406.942 21.1578C405.856 20.3819 403.758 20.3538 402.273 21.0184C402.129 21.0827 401.991 21.1535 401.86 21.2308C399.793 22.4466 398.65 24.1487 398.164 26.7018C397.945 27.869 397.969 28.3553 398.31 29.5225C398.699 30.8355 399.914 32.6106 400.474 32.6106C400.595 32.6106 400.547 32.416 400.352 32.1972Z" fill="#07617D"/>
<path d="M413.264 35.261C414.164 34.9449 414.577 34.1181 414.358 33.1455C414.115 32.1729 413.799 31.8811 412.948 31.8811C411.222 31.8811 410.419 33.9722 411.732 35.0178C412.486 35.6257 412.316 35.6014 413.264 35.261Z" fill="#07617D"/>
<path d="M419.003 86.6214L420.097 86.0864L418.76 86.208C418.03 86.281 417.106 86.4025 416.693 86.4755C416.304 86.5241 415.817 86.4755 415.623 86.3539C415.039 85.9892 415.696 85.4542 416.936 85.284C417.519 85.1868 418.395 84.9679 418.881 84.7734C419.975 84.3114 420.024 83.8494 418.954 84.1655C417.763 84.4816 415.282 84.4573 415.404 84.0925C415.55 83.7035 415.988 83.509 417.641 83.1442C418.419 82.974 419.076 82.6579 419.368 82.3904L420.097 81.9284L419.368 82.0743C418.978 82.1473 417.909 82.2932 417.009 82.3904C415.982 82.5014 415.505 82.4877 415.553 82.0743C415.578 81.867 415.41 81.794 415.143 81.7149C414.878 81.6364 414.392 81.6001 413.532 81.5637C411.246 81.4421 411.27 81.8068 413.629 82.2688C415.064 82.5606 415.72 82.9983 415.428 83.4846C415.355 83.5819 414.407 83.6305 413.337 83.5576L411.343 83.4117L412.316 83.898C412.851 84.1655 413.75 84.3843 414.285 84.3843C414.991 84.3843 415.355 84.5059 415.453 84.7734C415.744 85.5029 415.331 85.6488 413.313 85.5029L411.343 85.357L412.316 85.8433C412.851 86.1107 413.58 86.3296 413.945 86.3296C414.869 86.3296 415.355 86.5728 415.355 86.9861C415.355 87.5211 417.592 87.3022 419.003 86.6214Z" fill="#07617D"/>
<path d="M429.052 42.0937C428.743 42.4608 428.421 42.8151 428.097 43.1393L429.052 43.1492V42.0937Z" fill="#07617D"/>
<path d="M429.052 42.0937V43.1492L430.164 43.1607V40.6397C429.831 41.1209 429.452 41.618 429.052 42.0937Z" fill="#07617D"/>
<path d="M404.119 64.8564C403.415 64.1226 402.756 63.3681 402.273 62.7241V64.8564H404.119Z" fill="#07617D"/>
<path d="M401.738 61.9354C401.373 61.3275 400.984 60.8169 400.887 60.8169C400.766 60.8169 400.498 61.5707 400.304 62.4947C400.161 63.111 400.065 63.8428 400.004 64.8564H402.061H402.273V62.7241C402.055 62.435 401.873 62.1681 401.738 61.9354Z" fill="#07617D"/>
<path d="M411.805 22.7383C412.073 23.3462 412.34 23.8569 412.389 23.8569C412.583 23.8569 412.073 21.8387 411.684 21.0849C411.489 20.6958 411.392 20.3311 411.44 20.2581C411.513 20.2095 412.243 20.015 413.094 19.8204C415.501 19.3098 419.027 19.1396 421.045 19.4557C422.637 19.7137 425.008 20.3902 425.787 20.7954C425.889 20.8484 425.964 20.8968 426.006 20.939C426.127 21.0362 426.054 21.4496 425.836 21.863C425.228 23.0301 425.374 23.0544 426.298 21.9602C426.808 21.3767 427.83 20.6472 428.778 20.1609C429.342 19.884 429.763 19.7023 430.164 19.5847V1H425.811L405.094 1V18.4473C407.828 18.4186 410.654 20.1642 411.805 22.7383Z" fill="#07617D"/>
<path d="M430.164 101.06V80.999C428.181 82.4557 425.41 84.8753 422.529 86.3728C419.077 88.1666 417.179 88.7801 415.963 88.7801C414.991 88.9083 414.585 88.3472 414.504 88.0506C413.193 87.9812 411.232 87.8409 409.398 87.5643C407.564 87.2877 406.357 86.8717 405.094 86.2694V101.06H430.164Z" fill="#07617D"/>
<path d="M430.164 43.1607L468 43.5527V38.9327L433.259 38.8408L431.226 38.8354C430.999 39.3403 430.624 39.9747 430.164 40.6397V43.1607Z" fill="#07617D"/>
<path d="M430.164 80.999V101.06H433.259V78.3243C432.311 79.2969 430.801 80.5127 430.164 80.999Z" fill="#07617D"/>
<path d="M428.146 69.5706C426.841 68.5133 425.203 66.8959 425.203 66.4339C425.203 65.7044 425.617 65.6071 426.371 66.1178C426.735 66.3852 427.416 66.7743 427.878 67.0174C428.705 67.4551 428.705 67.4308 427.465 66.0691C426.687 65.2424 426.249 64.5615 426.346 64.3427C426.541 63.8078 426.979 63.8807 428.292 64.6588C430.213 65.7773 430.48 65.7773 429.264 64.5859C428.632 63.9536 428.121 63.2971 428.121 63.1026C428.121 62.4704 428.802 62.4704 429.629 63.0783C430.407 63.6619 431.842 64.4643 432.134 64.4643C432.207 64.4643 431.769 64.0023 431.161 63.4187C429.896 62.2029 429.824 61.9111 430.699 61.6923C431.234 61.5464 431.574 61.7652 433.155 63.2728L433.259 63.3713C434.372 64.423 434.874 64.898 435.708 64.8564H468V43.5527L430.164 43.1607L429.052 43.1492L428.097 43.1393C426.833 44.4037 425.982 44.9873 424.425 45.7168C421.872 46.9083 420.608 47.2001 418.225 47.2001C416.012 47.2001 413.896 46.7137 412.291 45.8627C411.659 45.5223 411.076 45.2548 410.954 45.2548C410.589 45.2548 412.413 46.4706 413.58 47.0055C414.212 47.2973 414.747 47.5891 414.747 47.662C414.747 47.735 413.556 48.4645 412.097 49.2426C409.69 50.5556 409.422 50.7745 409.179 51.5769C408.571 53.6437 408.887 55.0784 410.541 57.8261C411.684 59.7227 411.732 59.8443 411.294 59.8443C410.93 59.8443 408.839 58.823 407.939 58.2394C407.598 58.0206 407.769 58.2638 408.304 58.7987C408.863 59.358 410.808 60.8899 411.805 61.3032C413.264 62.0327 414.796 62.886 414.018 63.3713C413.512 63.8187 410.97 62.9567 410.614 62.7622C409.196 61.849 410.414 63.002 411.757 64.2732L411.805 64.3184C412.559 65.0479 412.802 65.6801 412.316 65.6801C411.927 65.6801 409.69 64.5129 409.519 64.2211C409.446 64.0995 409.252 63.978 409.082 63.978C408.936 63.978 409.398 64.5859 410.127 65.3153C411.1 66.288 411.367 66.7257 411.173 66.9202C410.808 67.2849 410.152 67.0418 408.668 66.0205C408.012 65.5585 407.453 65.2667 407.453 65.364C407.453 65.4612 407.963 66.0691 408.595 66.7013C408.92 67.1315 409.471 68.0208 409.082 68.136C408.474 68.4035 408.304 68.3548 407.088 67.5281C406.525 67.133 405.816 66.5229 405.094 65.8313V77.8866C405.994 80.2696 414.986 80.1526 415.404 80.2696C416.132 80.4731 416.007 80.9933 417.009 80.999C417.858 81.0039 418.961 80.2352 419.586 80.0264C422.999 77.9701 430.091 73.3317 431.161 71.2278C430.72 71.0339 430.367 70.8597 430.164 70.7503C429.427 70.4251 428.595 69.8918 428.146 69.5706Z" fill="#07617D"/>
<path d="M430.164 1V19.5847C430.714 19.4234 431.225 19.3828 432.012 19.3828C432.435 19.388 432.851 19.4298 433.259 19.5051V1L430.164 1Z" fill="#07617D"/>
<path d="M433.082 37.4737C431.501 37.4737 431.331 37.5224 431.453 37.9114C431.498 38.0972 431.411 38.4232 431.226 38.8354L433.259 38.8408V37.4728C433.201 37.4734 433.142 37.4737 433.082 37.4737Z" fill="#07617D"/>
<path d="M398.577 48.9022L399.015 46.9812C399.258 45.9113 399.793 44.3794 400.182 43.5527C400.266 43.3875 400.364 43.2129 400.474 43.0317C400.935 42.2703 401.602 41.3953 402.273 40.6397C402.969 39.8549 403.668 39.1989 404.145 38.9327H371.221V64.8564H400.004C400.065 63.8428 400.161 63.111 400.304 62.4947C400.498 61.5707 400.766 60.8169 400.887 60.8169C397.647 56.9264 397.997 51.2527 398.577 48.9022Z" fill="#07617D"/>
<path d="M433.155 63.2728C431.574 61.7652 431.234 61.5464 430.699 61.6923C429.824 61.9111 429.896 62.2029 431.161 63.4187C431.769 64.0023 432.207 64.4643 432.134 64.4643C431.842 64.4643 430.407 63.6619 429.629 63.0783C428.802 62.4704 428.121 62.4704 428.121 63.1026C428.121 63.2971 428.632 63.9536 429.264 64.5859C430.48 65.7773 430.213 65.7773 428.292 64.6588C426.979 63.8807 426.541 63.8078 426.346 64.3427C426.249 64.5615 426.687 65.2424 427.465 66.0691C428.705 67.4308 428.705 67.4551 427.878 67.0174C427.416 66.7743 426.735 66.3852 426.371 66.1178C425.617 65.6071 425.203 65.7044 425.203 66.4339C425.203 66.8959 426.841 68.5133 428.146 69.5706C428.595 69.8918 429.427 70.4251 430.164 70.7503C430.367 70.8597 430.72 71.0339 431.161 71.2278C430.091 73.3317 422.999 77.9701 419.586 80.0264C418.961 80.2352 417.858 81.0039 417.009 80.999C416.007 80.9933 416.132 80.4731 415.404 80.2696C414.986 80.1526 405.994 80.2696 405.094 77.8866V65.8313M433.155 63.2728L433.259 63.3713M433.155 63.2728C433.19 63.3062 433.225 63.339 433.259 63.3713M428.097 43.1393C426.833 44.4037 425.982 44.9873 424.425 45.7168C421.872 46.9083 420.608 47.2001 418.225 47.2001C416.012 47.2001 413.896 46.7137 412.291 45.8627C411.659 45.5223 411.076 45.2548 410.954 45.2548C410.589 45.2548 412.413 46.4706 413.58 47.0055C414.212 47.2973 414.747 47.5891 414.747 47.662C414.747 47.735 413.556 48.4645 412.097 49.2426C409.69 50.5556 409.422 50.7745 409.179 51.5769C408.571 53.6437 408.887 55.0784 410.541 57.8261C411.684 59.7227 411.732 59.8443 411.294 59.8443C410.93 59.8443 408.839 58.823 407.939 58.2394C407.598 58.0206 407.769 58.2638 408.304 58.7987C408.863 59.358 410.808 60.8899 411.805 61.3032C413.264 62.0327 414.796 62.886 414.018 63.3713C413.512 63.8187 410.97 62.9567 410.614 62.7622C409.196 61.849 410.414 63.002 411.757 64.2732M428.097 43.1393C428.421 42.8151 428.743 42.4608 429.052 42.0937M428.097 43.1393L429.052 43.1492M411.805 64.3184C412.559 65.0479 412.802 65.6801 412.316 65.6801C411.927 65.6801 409.69 64.5129 409.519 64.2211C409.446 64.0995 409.252 63.978 409.082 63.978C408.936 63.978 409.398 64.5859 410.127 65.3153C411.1 66.288 411.367 66.7257 411.173 66.9202C410.808 67.2849 410.152 67.0418 408.668 66.0205C408.012 65.5585 407.453 65.2667 407.453 65.364C407.453 65.4612 407.963 66.0691 408.595 66.7013C408.92 67.1315 409.471 68.0208 409.082 68.136C408.474 68.4035 408.304 68.3548 407.088 67.5281C406.525 67.133 405.816 66.5229 405.094 65.8313M411.805 64.3184L411.757 64.2732M411.805 64.3184C411.789 64.3033 411.773 64.2882 411.757 64.2732M400.887 60.8169C400.984 60.8169 401.373 61.3275 401.738 61.9354C401.873 62.1681 402.055 62.435 402.273 62.7241M400.887 60.8169C400.766 60.8169 400.498 61.5707 400.304 62.4947C400.161 63.111 400.065 63.8428 400.004 64.8564M400.887 60.8169C397.647 56.9264 397.997 51.2527 398.577 48.9022L399.015 46.9812C399.258 45.9113 399.793 44.3794 400.182 43.5527C400.266 43.3875 400.364 43.2129 400.474 43.0317M468 43.5527V64.8564H435.708C434.874 64.898 434.372 64.423 433.259 63.3713M468 43.5527L430.164 43.1607M468 43.5527V38.9327L433.259 38.8408M400.004 64.8564H402.061H402.273M400.004 64.8564H371.221V38.9327H404.145C403.668 39.1989 402.969 39.8549 402.273 40.6397C401.602 41.3953 400.935 42.2703 400.474 43.0317M400.474 43.0317L399.914 43.0333M430.164 80.999V101.06M430.164 80.999C428.181 82.4557 425.41 84.8753 422.529 86.3728C419.077 88.1666 417.179 88.7801 415.963 88.7801C414.991 88.9083 414.585 88.3472 414.504 88.0506C413.193 87.9812 411.232 87.8409 409.398 87.5643C407.564 87.2877 406.357 86.8717 405.094 86.2694V101.06H430.164M430.164 80.999C430.801 80.5127 432.311 79.2969 433.259 78.3243V101.06H430.164M429.052 42.0937V43.1492M429.052 42.0937C429.452 41.618 429.831 41.1209 430.164 40.6397M429.052 43.1492L430.164 43.1607M430.164 43.1607V40.6397M430.164 40.6397C430.624 39.9747 430.999 39.3403 431.226 38.8354M430.164 1V19.5847M430.164 1H425.811L405.094 1V18.4473C407.828 18.4186 410.654 20.1642 411.805 22.7383C412.073 23.3462 412.34 23.8569 412.389 23.8569C412.583 23.8569 412.073 21.8387 411.684 21.0849C411.489 20.6958 411.392 20.3311 411.44 20.2581C411.513 20.2095 412.243 20.015 413.094 19.8204C415.501 19.3098 419.027 19.1396 421.045 19.4557C422.637 19.7137 425.008 20.3902 425.787 20.7954C425.889 20.8484 425.964 20.8968 426.006 20.939C426.127 21.0362 426.054 21.4496 425.836 21.863C425.228 23.0301 425.374 23.0544 426.298 21.9602C426.808 21.3767 427.83 20.6472 428.778 20.1609C429.342 19.884 429.763 19.7023 430.164 19.5847M430.164 1L433.259 1V19.5051C432.851 19.4298 432.435 19.388 432.012 19.3828C431.225 19.3828 430.714 19.4234 430.164 19.5847M404.119 64.8564C403.415 64.1226 402.756 63.3681 402.273 62.7241M404.119 64.8564H402.273M404.119 64.8564C404.438 65.1898 404.767 65.5189 405.094 65.8313M402.273 21.0184C403.758 20.3538 405.856 20.3819 406.942 21.1578C408.109 21.9845 409.617 24.5863 408.936 24.5863C408.79 24.5863 408.668 24.4161 408.668 24.2216C408.668 23.5894 406.966 21.9359 406.042 21.6928C404.815 21.3422 403.466 21.6556 402.273 22.4538M402.273 21.0184C402.129 21.0827 401.991 21.1535 401.86 21.2308C399.793 22.4466 398.65 24.1487 398.164 26.7018C397.945 27.869 397.969 28.3553 398.31 29.5225C398.699 30.8355 399.914 32.6106 400.474 32.6106C400.595 32.6106 400.547 32.416 400.352 32.1972C399.161 30.8355 398.772 27.7474 399.55 25.8508C400.163 24.3881 401.148 23.2058 402.273 22.4538M402.273 21.0184V22.4538M402.273 62.7241V64.8564M431.226 38.8354C431.411 38.4232 431.498 38.0972 431.453 37.9114C431.331 37.5224 431.501 37.4737 433.082 37.4737C433.142 37.4737 433.201 37.4734 433.259 37.4728V38.8408M431.226 38.8354L433.259 38.8408M419.003 86.6214L420.097 86.0864L418.76 86.208C418.03 86.281 417.106 86.4025 416.693 86.4755C416.304 86.5241 415.817 86.4755 415.623 86.3539C415.039 85.9892 415.696 85.4542 416.936 85.284C417.519 85.1868 418.395 84.9679 418.881 84.7734C419.975 84.3114 420.024 83.8494 418.954 84.1655C417.763 84.4816 415.282 84.4573 415.404 84.0925C415.55 83.7035 415.988 83.509 417.641 83.1442C418.419 82.974 419.076 82.6579 419.368 82.3904L420.097 81.9284L419.368 82.0743C418.978 82.1473 417.909 82.2932 417.009 82.3904C415.982 82.5014 415.505 82.4877 415.553 82.0743C415.578 81.867 415.41 81.794 415.143 81.7149C414.878 81.6364 414.392 81.6001 413.532 81.5637C411.246 81.4421 411.27 81.8068 413.629 82.2688C415.064 82.5606 415.72 82.9983 415.428 83.4846C415.355 83.5819 414.407 83.6305 413.337 83.5576L411.343 83.4117L412.316 83.898C412.851 84.1655 413.75 84.3843 414.285 84.3843C414.991 84.3843 415.355 84.5059 415.453 84.7734C415.744 85.5029 415.331 85.6488 413.313 85.5029L411.343 85.357L412.316 85.8433C412.851 86.1107 413.58 86.3296 413.945 86.3296C414.869 86.3296 415.355 86.5728 415.355 86.9861C415.355 87.5211 417.592 87.3022 419.003 86.6214ZM421.313 44.5739C422.48 43.4311 422.893 41.6317 422.675 38.8354C422.456 35.8203 421.167 33.413 419.465 32.8537C417.033 32.0513 414.747 35.4312 414.747 39.8567C414.747 42.3369 415.088 43.4797 416.206 44.5739C417.082 45.4493 417.179 45.4979 418.76 45.4979C420.34 45.4979 420.437 45.4493 421.313 44.5739ZM413.264 35.261C414.164 34.9449 414.577 34.1181 414.358 33.1455C414.115 32.1729 413.799 31.8811 412.948 31.8811C411.222 31.8811 410.419 33.9722 411.732 35.0178C412.486 35.6257 412.316 35.6014 413.264 35.261ZM425.811 34.6774C426.76 33.7534 426.565 32.3431 425.422 31.8568C424.036 31.2975 422.529 32.6106 423.015 33.9722C423.55 35.3826 424.814 35.6987 425.811 34.6774ZM438.772 30.9571C439.599 28.2337 438.699 25.097 436.559 23.2247C434.346 21.2794 431.307 21.1092 429.726 22.8599C429.191 23.4435 429.459 23.5408 430.164 23.0058C431.477 22.0089 433.909 22.4709 435.708 24.0514C437.799 25.8994 438.699 29.6683 437.58 32.027C436.754 33.7534 436.778 33.802 437.678 32.8051C438.115 32.2945 438.626 31.4677 438.772 30.9571Z" stroke="#07617D" stroke-width="0.5" stroke-linejoin="round"/>
</svg>
