<svg width="121" height="63" viewBox="0 0 121 63" fill="none" xmlns="http://www.w3.org/2000/svg">
<path d="M1.984 23.335H7.264V44.999H1.984V23.335ZM18.88 23.335C18.5813 24.8497 18.2293 26.151 17.824 27.239C17.44 28.327 17.0133 29.2764 16.544 30.087C16.0747 30.8764 15.5733 31.5484 15.04 32.103C14.5067 32.6577 13.952 33.159 13.376 33.607L20.864 44.999H14.976L7.616 33.127V32.743C8.55467 32.295 9.344 31.7724 9.984 31.175C10.6453 30.5564 11.2 29.863 11.648 29.095C12.096 28.3057 12.4693 27.4417 12.768 26.503C13.088 25.543 13.376 24.487 13.632 23.335H18.88ZM30.1085 23.047C31.7938 23.047 33.2445 23.303 34.4605 23.815C35.6765 24.327 36.6792 25.0524 37.4685 25.991C38.2578 26.9297 38.8338 28.0817 39.1965 29.447C39.5805 30.791 39.7725 32.3057 39.7725 33.991C39.7725 35.655 39.5592 37.1804 39.1325 38.567C38.7272 39.9324 38.1085 41.1057 37.2765 42.087C36.4445 43.0684 35.3992 43.8364 34.1405 44.391C32.8818 44.9244 31.3992 45.191 29.6925 45.191C28.0072 45.191 26.5458 44.9564 25.3085 44.487C24.0925 43.9964 23.0898 43.2924 22.3005 42.375C21.5112 41.4364 20.9245 40.3057 20.5405 38.983C20.1778 37.6604 19.9965 36.1457 19.9965 34.439C19.9965 32.775 20.1992 31.2497 20.6045 29.863C21.0312 28.455 21.6605 27.2497 22.4925 26.247C23.3245 25.223 24.3698 24.4337 25.6285 23.879C26.9085 23.3244 28.4018 23.047 30.1085 23.047ZM29.6605 26.791C28.2738 26.791 27.2605 27.4417 26.6205 28.743C26.0018 30.023 25.6925 31.8044 25.6925 34.087C25.6925 35.175 25.7565 36.167 25.8845 37.063C26.0338 37.959 26.2685 38.7377 26.5885 39.399C26.9298 40.039 27.3885 40.5404 27.9645 40.903C28.5405 41.2657 29.2658 41.447 30.1405 41.447C31.5272 41.447 32.5298 40.8284 33.1485 39.591C33.7672 38.3537 34.0765 36.5937 34.0765 34.311C34.0765 33.223 34.0018 32.2204 33.8525 31.303C33.7245 30.3857 33.4898 29.5964 33.1485 28.935C32.8285 28.2524 32.3805 27.7297 31.8045 27.367C31.2285 26.983 30.5138 26.791 29.6605 26.791ZM48.3795 23.335H53.0835L61.0195 44.999H55.6755L54.0755 39.783H47.0675L45.4035 44.999H40.1555L48.3795 23.335ZM52.8915 35.879C52.6782 35.2604 52.4542 34.6204 52.2195 33.959C52.0062 33.2764 51.7928 32.615 51.5795 31.975C51.3875 31.335 51.2062 30.7377 51.0355 30.183C50.8648 29.607 50.7155 29.127 50.5875 28.743C50.4595 29.1484 50.3102 29.639 50.1395 30.215C49.9688 30.7697 49.7768 31.367 49.5635 32.007C49.3715 32.647 49.1582 33.2977 48.9235 33.959C48.7102 34.6204 48.4968 35.2604 48.2835 35.879H52.8915ZM62.9528 23.335H68.2328V41.127H75.8488V44.999H62.9528V23.335ZM84.7858 23.335H89.4898L97.4258 44.999H92.0818L90.4818 39.783H83.4738L81.8098 44.999H76.5617L84.7858 23.335ZM89.2978 35.879C89.0844 35.2604 88.8604 34.6204 88.6258 33.959C88.4124 33.2764 88.1991 32.615 87.9858 31.975C87.7938 31.335 87.6124 30.7377 87.4418 30.183C87.2711 29.607 87.1218 29.127 86.9938 28.743C86.8658 29.1484 86.7164 29.639 86.5458 30.215C86.3751 30.7697 86.1831 31.367 85.9698 32.007C85.7778 32.647 85.5644 33.2977 85.3298 33.959C85.1164 34.6204 84.9031 35.2604 84.6898 35.879H89.2978Z" fill="white"/>
<path d="M108.03 14.4875C108.329 14.1269 108.435 13.5591 108.379 12.6767C108.323 11.7252 107.992 10.9656 107.556 10.7891C106.932 10.5359 106.346 11.6025 106.346 12.999C106.346 13.7816 106.433 14.1423 106.72 14.4875C106.945 14.7638 106.97 14.7791 107.375 14.7791C107.78 14.7791 107.805 14.7638 108.03 14.4875Z" fill="white"/>
<path d="M109.183 11.3646C109.426 11.073 109.376 10.628 109.083 10.4745C108.728 10.298 108.341 10.7124 108.466 11.1421C108.603 11.5871 108.927 11.6869 109.183 11.3646Z" fill="white"/>
<path d="M112.506 10.1906C112.718 9.33121 112.488 8.34137 111.939 7.75054C111.371 7.13669 110.592 7.08298 110.187 7.63545C110.05 7.8196 110.118 7.85029 110.299 7.68148C110.636 7.36689 111.259 7.51268 111.721 8.01143C112.257 8.59459 112.488 9.78392 112.201 10.5282C111.989 11.073 111.995 11.0884 112.226 10.7738C112.338 10.6126 112.469 10.3517 112.506 10.1906Z" fill="white"/>
<path d="M102.655 10.5819C102.35 10.1522 102.25 9.17774 102.449 8.57924C102.607 8.11768 102.859 7.7446 103.147 7.5073C103.453 7.25542 103.799 7.15651 104.114 7.26714C104.351 7.34387 104.787 7.86564 104.787 8.06514C104.787 8.12653 104.819 8.18024 104.856 8.18024C105.031 8.18024 104.644 7.35921 104.345 7.09833C104.066 6.85346 103.528 6.84462 103.147 7.05433C103.111 7.07463 103.075 7.09697 103.042 7.12135C102.512 7.505 102.219 8.04212 102.094 8.8478C102.038 9.21611 102.044 9.36957 102.131 9.73788C102.231 10.1522 102.543 10.7124 102.686 10.7124C102.717 10.7124 102.705 10.651 102.655 10.5819Z" fill="white"/>
<path d="M105.966 11.5487C106.196 11.449 106.302 11.1881 106.246 10.8812C106.184 10.5743 106.103 10.4822 105.885 10.4822C105.442 10.4822 105.236 11.1421 105.573 11.472C105.766 11.6638 105.723 11.6562 105.966 11.5487Z" fill="white"/>
<path d="M107.437 27.7561L107.718 27.5873L107.375 27.6256C107.188 27.6487 106.951 27.687 106.845 27.71C106.745 27.7254 106.62 27.71 106.571 27.6717C106.421 27.5566 106.589 27.3878 106.907 27.3341C107.057 27.3034 107.281 27.2343 107.406 27.1729C107.687 27.0271 107.699 26.8814 107.425 26.9811C107.119 27.0809 106.483 27.0732 106.514 26.9581C106.552 26.8353 106.664 26.7739 107.088 26.6588C107.288 26.6051 107.456 26.5054 107.531 26.421L107.718 26.2752L107.531 26.3212C107.431 26.3442 107.157 26.3903 106.926 26.421C106.663 26.456 106.54 26.4517 106.553 26.3212C106.559 26.2558 106.516 26.2327 106.448 26.2078C106.38 26.183 106.255 26.1716 106.034 26.1601C105.448 26.1217 105.455 26.2368 106.059 26.3826C106.427 26.4747 106.596 26.6128 106.521 26.7663C106.502 26.7969 106.259 26.8123 105.984 26.7893L105.473 26.7432L105.723 26.8967C105.86 26.9811 106.09 27.0502 106.228 27.0502C106.408 27.0502 106.502 27.0885 106.527 27.1729C106.602 27.4031 106.496 27.4492 105.978 27.4031L105.473 27.3571L105.723 27.5105C105.86 27.5949 106.047 27.664 106.14 27.664C106.377 27.664 106.502 27.7407 106.502 27.8712C106.502 28.04 107.076 27.9709 107.437 27.7561Z" fill="white"/>
<path d="M110.014 13.7049C109.935 13.8207 109.852 13.9325 109.769 14.0348L110.014 14.038V13.7049Z" fill="white"/>
<path d="M110.014 13.7049V14.038L110.299 14.0416V13.246C110.214 13.3979 110.117 13.5548 110.014 13.7049Z" fill="white"/>
<path d="M103.621 20.8879C103.44 20.6564 103.271 20.4183 103.147 20.215V20.8879H103.621Z" fill="white"/>
<path d="M103.01 19.9662C102.917 19.7743 102.817 19.6132 102.792 19.6132C102.761 19.6132 102.692 19.8511 102.643 20.1426C102.606 20.3371 102.581 20.5681 102.566 20.8879H103.093H103.147V20.215C103.092 20.1238 103.045 20.0396 103.01 19.9662Z" fill="white"/>
<path d="M105.592 7.59708C105.66 7.78891 105.729 7.95004 105.741 7.95004C105.791 7.95004 105.66 7.31317 105.561 7.07531C105.511 6.95254 105.486 6.83744 105.498 6.81442C105.517 6.79908 105.704 6.73769 105.922 6.6763C106.539 6.51517 107.443 6.46146 107.961 6.56121C108.369 6.64263 108.977 6.85608 109.177 6.98397C109.203 7.00069 109.222 7.01596 109.233 7.02927C109.264 7.05996 109.245 7.19041 109.189 7.32085C109.033 7.68916 109.071 7.69683 109.308 7.35154C109.439 7.16739 109.701 6.93719 109.944 6.78373C110.088 6.69636 110.196 6.63902 110.299 6.60191V0.737305H109.183L103.871 0.737305V6.24298C104.572 6.23395 105.297 6.78479 105.592 7.59708Z" fill="white"/>
<path d="M110.299 32.3122V25.9819C109.791 26.4416 109.08 27.2051 108.341 27.6777C107.456 28.2437 106.97 28.4373 106.658 28.4373C106.408 28.4777 106.305 28.3007 106.284 28.2071C105.948 28.1852 105.445 28.1409 104.974 28.0536C104.504 27.9664 104.195 27.8351 103.871 27.645V32.3122H110.299Z" fill="white"/>
<path d="M110.299 14.0416L120.001 14.1653V12.7074L111.093 12.6784L110.571 12.6767C110.513 12.836 110.417 13.0362 110.299 13.246V14.0416Z" fill="white"/>
<path d="M110.299 25.9819V32.3122H111.093V25.1378C110.85 25.4448 110.462 25.8284 110.299 25.9819Z" fill="white"/>
<path d="M109.782 22.3755C109.447 22.0419 109.027 21.5315 109.027 21.3857C109.027 21.1555 109.133 21.1248 109.326 21.2859C109.42 21.3703 109.595 21.4931 109.713 21.5698C109.925 21.708 109.925 21.7003 109.607 21.2706C109.407 21.0097 109.295 20.7949 109.32 20.7258C109.37 20.557 109.482 20.58 109.819 20.8255C110.312 21.1785 110.38 21.1785 110.068 20.8025C109.906 20.603 109.775 20.3959 109.775 20.3345C109.775 20.135 109.95 20.135 110.162 20.3268C110.361 20.511 110.729 20.7642 110.804 20.7642C110.823 20.7642 110.711 20.6184 110.555 20.4342C110.23 20.0506 110.212 19.9585 110.436 19.8894C110.573 19.8434 110.661 19.9125 111.066 20.3882L111.093 20.4193C111.378 20.7511 111.507 20.901 111.721 20.8879H120.001V14.1653L110.299 14.0416L110.014 14.038L109.769 14.0348C109.445 14.4338 109.227 14.618 108.828 14.8482C108.173 15.2242 107.849 15.3162 107.238 15.3162C106.67 15.3162 106.128 15.1628 105.716 14.8942C105.554 14.7868 105.405 14.7024 105.373 14.7024C105.28 14.7024 105.748 15.0861 106.047 15.2549C106.209 15.3469 106.346 15.439 106.346 15.462C106.346 15.4851 106.041 15.7152 105.667 15.9608C105.049 16.3751 104.981 16.4442 104.918 16.6974C104.762 17.3496 104.843 17.8023 105.267 18.6694C105.561 19.2679 105.573 19.3063 105.461 19.3063C105.367 19.3063 104.831 18.984 104.6 18.7998C104.513 18.7308 104.557 18.8075 104.694 18.9763C104.837 19.1528 105.336 19.6362 105.592 19.7667C105.966 19.9969 106.359 20.2661 106.159 20.4193C106.029 20.5605 105.378 20.2884 105.286 20.227C104.923 19.9389 105.235 20.3027 105.579 20.7039L105.592 20.7181C105.785 20.9483 105.847 21.1478 105.723 21.1478C105.623 21.1478 105.049 20.7795 105.006 20.6874C104.987 20.6491 104.937 20.6107 104.893 20.6107C104.856 20.6107 104.974 20.8025 105.161 21.0327C105.411 21.3396 105.479 21.4778 105.43 21.5392C105.336 21.6543 105.168 21.5775 104.787 21.2552C104.619 21.1095 104.476 21.0174 104.476 21.0481C104.476 21.0788 104.607 21.2706 104.769 21.4701C104.852 21.6059 104.993 21.8865 104.893 21.9228C104.737 22.0072 104.694 21.9919 104.382 21.731C104.238 21.6063 104.056 21.4138 103.871 21.1956V24.9997C104.102 25.7517 106.407 25.7148 106.514 25.7517C106.701 25.8159 106.669 25.9801 106.926 25.9819C107.144 25.9834 107.427 25.7409 107.587 25.675C108.462 25.0261 110.28 23.5624 110.555 22.8985C110.442 22.8373 110.351 22.7823 110.299 22.7478C110.11 22.6452 109.897 22.4769 109.782 22.3755Z" fill="white"/>
<path d="M110.299 0.737305V6.60191C110.44 6.55102 110.571 6.53819 110.773 6.53819C110.881 6.53983 110.988 6.55303 111.093 6.57681V0.737305H110.299Z" fill="white"/>
<path d="M111.047 12.247C110.642 12.247 110.598 12.2623 110.63 12.3851C110.641 12.4437 110.619 12.5466 110.571 12.6767L111.093 12.6784V12.2467C111.078 12.2469 111.063 12.247 111.047 12.247Z" fill="white"/>
<path d="M102.2 15.8534L102.312 15.2472C102.374 14.9096 102.512 14.4262 102.611 14.1653C102.633 14.1132 102.658 14.058 102.686 14.0009C102.805 13.7606 102.976 13.4845 103.147 13.246C103.326 12.9984 103.505 12.7914 103.628 12.7074H95.1855V20.8879H102.566C102.581 20.5681 102.606 20.3371 102.643 20.1426C102.692 19.8511 102.761 19.6132 102.792 19.6132C101.961 18.3855 102.051 16.5951 102.2 15.8534Z" fill="white"/>
<path d="M111.066 20.3882C110.661 19.9125 110.573 19.8434 110.436 19.8894C110.212 19.9585 110.23 20.0506 110.555 20.4342C110.711 20.6184 110.823 20.7642 110.804 20.7642C110.729 20.7642 110.361 20.511 110.162 20.3268C109.95 20.135 109.775 20.135 109.775 20.3345C109.775 20.3959 109.906 20.603 110.068 20.8025C110.38 21.1785 110.312 21.1785 109.819 20.8255C109.482 20.58 109.37 20.557 109.32 20.7258C109.295 20.7949 109.407 21.0097 109.607 21.2706C109.925 21.7003 109.925 21.708 109.713 21.5698C109.595 21.4931 109.42 21.3703 109.326 21.2859C109.133 21.1248 109.027 21.1555 109.027 21.3857C109.027 21.5315 109.447 22.0419 109.782 22.3755C109.897 22.4769 110.11 22.6452 110.299 22.7478C110.351 22.7823 110.442 22.8373 110.555 22.8985C110.28 23.5624 108.462 25.0261 107.587 25.675C107.427 25.7409 107.144 25.9834 106.926 25.9819C106.669 25.9801 106.701 25.8159 106.514 25.7517C106.407 25.7148 104.102 25.7517 103.871 24.9997V21.1956M111.066 20.3882L111.093 20.4193M111.066 20.3882C111.075 20.3987 111.084 20.4091 111.093 20.4193M109.769 14.0348C109.445 14.4338 109.227 14.618 108.828 14.8482C108.173 15.2242 107.849 15.3162 107.238 15.3162C106.67 15.3162 106.128 15.1628 105.716 14.8942C105.554 14.7868 105.405 14.7024 105.373 14.7024C105.28 14.7024 105.748 15.0861 106.047 15.2549C106.209 15.3469 106.346 15.439 106.346 15.462C106.346 15.4851 106.041 15.7152 105.667 15.9608C105.049 16.3751 104.981 16.4442 104.918 16.6974C104.762 17.3496 104.843 17.8023 105.267 18.6694C105.561 19.2679 105.573 19.3063 105.461 19.3063C105.367 19.3063 104.831 18.984 104.6 18.7998C104.513 18.7308 104.557 18.8075 104.694 18.9763C104.837 19.1528 105.336 19.6362 105.592 19.7667C105.966 19.9969 106.359 20.2661 106.159 20.4193C106.029 20.5605 105.378 20.2884 105.286 20.227C104.923 19.9389 105.235 20.3027 105.579 20.7039M109.769 14.0348C109.852 13.9325 109.935 13.8207 110.014 13.7049M109.769 14.0348L110.014 14.038M105.592 20.7181C105.785 20.9483 105.847 21.1478 105.723 21.1478C105.623 21.1478 105.049 20.7795 105.006 20.6874C104.987 20.6491 104.937 20.6107 104.893 20.6107C104.856 20.6107 104.974 20.8025 105.161 21.0327C105.411 21.3396 105.479 21.4778 105.43 21.5392C105.336 21.6543 105.168 21.5775 104.787 21.2552C104.619 21.1095 104.476 21.0174 104.476 21.0481C104.476 21.0788 104.607 21.2706 104.769 21.4701C104.852 21.6059 104.993 21.8865 104.893 21.9228C104.737 22.0072 104.694 21.9919 104.382 21.731C104.238 21.6063 104.056 21.4138 103.871 21.1956M105.592 20.7181L105.579 20.7039M105.592 20.7181C105.588 20.7134 105.584 20.7086 105.579 20.7039M102.792 19.6132C102.817 19.6132 102.917 19.7743 103.01 19.9662C103.045 20.0396 103.092 20.1238 103.147 20.215M102.792 19.6132C102.761 19.6132 102.692 19.8511 102.643 20.1426C102.606 20.3371 102.581 20.5681 102.566 20.8879M102.792 19.6132C101.961 18.3855 102.051 16.5951 102.2 15.8534L102.312 15.2472C102.374 14.9096 102.512 14.4262 102.611 14.1653C102.633 14.1132 102.658 14.058 102.686 14.0009M120.001 14.1653V20.8879H111.721C111.507 20.901 111.378 20.7511 111.093 20.4193M120.001 14.1653L110.299 14.0416M120.001 14.1653V12.7074L111.093 12.6784M102.566 20.8879H103.093H103.147M102.566 20.8879H95.1855V12.7074H103.628C103.505 12.7914 103.326 12.9984 103.147 13.246C102.976 13.4845 102.805 13.7606 102.686 14.0009M102.686 14.0009L102.543 14.0014M110.299 25.9819V32.3122M110.299 25.9819C109.791 26.4416 109.08 27.2051 108.341 27.6777C107.456 28.2437 106.97 28.4373 106.658 28.4373C106.408 28.4777 106.305 28.3007 106.284 28.2071C105.948 28.1852 105.445 28.1409 104.974 28.0536C104.504 27.9664 104.195 27.8351 103.871 27.645V32.3122H110.299M110.299 25.9819C110.462 25.8284 110.85 25.4448 111.093 25.1378V32.3122H110.299M110.014 13.7049V14.038M110.014 13.7049C110.117 13.5548 110.214 13.3979 110.299 13.246M110.014 14.038L110.299 14.0416M110.299 14.0416V13.246M110.299 13.246C110.417 13.0362 110.513 12.836 110.571 12.6767M110.299 0.737305V6.60191M110.299 0.737305H109.183L103.871 0.737305V6.24298C104.572 6.23395 105.297 6.78479 105.592 7.59708C105.66 7.78891 105.729 7.95004 105.741 7.95004C105.791 7.95004 105.66 7.31317 105.561 7.07531C105.511 6.95254 105.486 6.83744 105.498 6.81442C105.517 6.79908 105.704 6.73769 105.922 6.6763C106.539 6.51517 107.443 6.46146 107.961 6.56121C108.369 6.64264 108.977 6.85608 109.177 6.98397C109.203 7.00069 109.222 7.01596 109.233 7.02927C109.264 7.05996 109.245 7.19041 109.189 7.32085C109.033 7.68916 109.071 7.69683 109.308 7.35154C109.439 7.16739 109.701 6.93719 109.944 6.78373C110.088 6.69636 110.196 6.63902 110.299 6.60191M110.299 0.737305H111.093V6.57681C110.988 6.55303 110.881 6.53983 110.773 6.53819C110.571 6.53819 110.44 6.55102 110.299 6.60191M103.621 20.8879C103.44 20.6564 103.271 20.4183 103.147 20.215M103.621 20.8879H103.147M103.621 20.8879C103.703 20.9931 103.787 21.0969 103.871 21.1956M103.147 7.05433C103.528 6.84462 104.066 6.85346 104.345 7.09833C104.644 7.35921 105.031 8.18024 104.856 8.18024C104.819 8.18024 104.787 8.12653 104.787 8.06514C104.787 7.86564 104.351 7.34387 104.114 7.26714C103.799 7.15651 103.453 7.25542 103.147 7.5073M103.147 7.05433C103.111 7.07463 103.075 7.09697 103.042 7.12135C102.512 7.505 102.219 8.04212 102.094 8.8478C102.038 9.21611 102.044 9.36957 102.131 9.73788C102.231 10.1522 102.543 10.7124 102.686 10.7124C102.717 10.7124 102.705 10.651 102.655 10.5819C102.35 10.1522 102.25 9.17774 102.449 8.57924C102.607 8.11768 102.859 7.7446 103.147 7.5073M103.147 7.05433V7.5073M103.147 20.215V20.8879M110.571 12.6767C110.619 12.5466 110.641 12.4437 110.63 12.3851C110.598 12.2623 110.642 12.247 111.047 12.247C111.063 12.247 111.078 12.2469 111.093 12.2467V12.6784M110.571 12.6767L111.093 12.6784M107.437 27.7561L107.718 27.5873L107.375 27.6256C107.188 27.6487 106.951 27.687 106.845 27.71C106.745 27.7254 106.62 27.71 106.571 27.6717C106.421 27.5566 106.589 27.3878 106.907 27.3341C107.057 27.3034 107.281 27.2343 107.406 27.1729C107.687 27.0271 107.699 26.8814 107.425 26.9811C107.119 27.0809 106.483 27.0732 106.514 26.9581C106.552 26.8353 106.664 26.7739 107.088 26.6588C107.288 26.6051 107.456 26.5054 107.531 26.421L107.718 26.2752L107.531 26.3212C107.431 26.3442 107.157 26.3903 106.926 26.421C106.663 26.456 106.54 26.4517 106.553 26.3212C106.559 26.2558 106.516 26.2327 106.448 26.2078C106.38 26.183 106.255 26.1716 106.034 26.1601C105.448 26.1217 105.455 26.2368 106.059 26.3826C106.427 26.4747 106.596 26.6128 106.521 26.7663C106.502 26.7969 106.259 26.8123 105.984 26.7893L105.473 26.7432L105.723 26.8967C105.86 26.9811 106.09 27.0502 106.228 27.0502C106.408 27.0502 106.502 27.0885 106.527 27.1729C106.602 27.4031 106.496 27.4492 105.978 27.4031L105.473 27.3571L105.723 27.5105C105.86 27.5949 106.047 27.664 106.14 27.664C106.377 27.664 106.502 27.7407 106.502 27.8712C106.502 28.04 107.076 27.9709 107.437 27.7561ZM108.03 14.4875C108.329 14.1269 108.435 13.5591 108.379 12.6767C108.323 11.7252 107.992 10.9656 107.556 10.7891C106.932 10.5359 106.346 11.6025 106.346 12.999C106.346 13.7816 106.433 14.1423 106.72 14.4875C106.945 14.7638 106.97 14.7791 107.375 14.7791C107.78 14.7791 107.805 14.7638 108.03 14.4875ZM105.966 11.5487C106.196 11.449 106.302 11.1881 106.246 10.8812C106.184 10.5743 106.103 10.4822 105.885 10.4822C105.442 10.4822 105.236 11.1421 105.573 11.472C105.766 11.6638 105.723 11.6562 105.966 11.5487ZM109.183 11.3646C109.426 11.073 109.376 10.628 109.083 10.4745C108.728 10.298 108.341 10.7124 108.466 11.1421C108.603 11.5871 108.927 11.6869 109.183 11.3646ZM112.506 10.1906C112.718 9.33121 112.488 8.34137 111.939 7.75054C111.371 7.13669 110.592 7.08298 110.187 7.63544C110.05 7.8196 110.118 7.85029 110.299 7.68148C110.636 7.36689 111.259 7.51268 111.721 8.01143C112.257 8.59459 112.488 9.78392 112.201 10.5282C111.989 11.073 111.995 11.0884 112.226 10.7738C112.338 10.6126 112.469 10.3517 112.506 10.1906Z" stroke="white" stroke-width="0.399513" stroke-linejoin="round"/>
<path d="M108.03 14.4875C108.329 14.1269 108.435 13.5591 108.379 12.6767C108.323 11.7252 107.992 10.9656 107.556 10.7891C106.932 10.5359 106.346 11.6025 106.346 12.999C106.346 13.7816 106.433 14.1423 106.72 14.4875C106.945 14.7638 106.97 14.7791 107.375 14.7791C107.78 14.7791 107.805 14.7638 108.03 14.4875Z" fill="white"/>
<path d="M109.183 11.3646C109.426 11.073 109.376 10.628 109.083 10.4745C108.728 10.298 108.341 10.7124 108.466 11.1421C108.603 11.5871 108.927 11.6869 109.183 11.3646Z" fill="white"/>
<path d="M112.506 10.1906C112.718 9.33121 112.488 8.34137 111.939 7.75054C111.371 7.13669 110.592 7.08298 110.187 7.63545C110.05 7.8196 110.118 7.85029 110.299 7.68148C110.636 7.36689 111.259 7.51268 111.721 8.01143C112.257 8.59459 112.488 9.78392 112.201 10.5282C111.989 11.073 111.995 11.0884 112.226 10.7738C112.338 10.6126 112.469 10.3517 112.506 10.1906Z" fill="white"/>
<path d="M102.655 10.5819C102.35 10.1522 102.25 9.17774 102.449 8.57924C102.607 8.11768 102.859 7.7446 103.147 7.5073C103.453 7.25542 103.799 7.15651 104.114 7.26714C104.351 7.34387 104.787 7.86564 104.787 8.06514C104.787 8.12653 104.819 8.18024 104.856 8.18024C105.031 8.18024 104.644 7.35921 104.345 7.09833C104.066 6.85346 103.528 6.84462 103.147 7.05433C103.111 7.07463 103.075 7.09697 103.042 7.12135C102.512 7.505 102.219 8.04212 102.094 8.8478C102.038 9.21611 102.044 9.36957 102.131 9.73788C102.231 10.1522 102.543 10.7124 102.686 10.7124C102.717 10.7124 102.705 10.651 102.655 10.5819Z" fill="white"/>
<path d="M105.966 11.5487C106.196 11.449 106.302 11.1881 106.246 10.8812C106.184 10.5743 106.103 10.4822 105.885 10.4822C105.442 10.4822 105.236 11.1421 105.573 11.472C105.766 11.6638 105.723 11.6562 105.966 11.5487Z" fill="white"/>
<path d="M107.437 27.7561L107.718 27.5873L107.375 27.6256C107.188 27.6487 106.951 27.687 106.845 27.71C106.745 27.7254 106.62 27.71 106.571 27.6717C106.421 27.5566 106.589 27.3878 106.907 27.3341C107.057 27.3034 107.281 27.2343 107.406 27.1729C107.687 27.0271 107.699 26.8814 107.425 26.9811C107.119 27.0809 106.483 27.0732 106.514 26.9581C106.552 26.8353 106.664 26.7739 107.088 26.6588C107.288 26.6051 107.456 26.5054 107.531 26.421L107.718 26.2752L107.531 26.3212C107.431 26.3442 107.157 26.3903 106.926 26.421C106.663 26.456 106.54 26.4517 106.553 26.3212C106.559 26.2558 106.516 26.2327 106.448 26.2078C106.38 26.183 106.255 26.1716 106.034 26.1601C105.448 26.1217 105.455 26.2368 106.059 26.3826C106.427 26.4747 106.596 26.6128 106.521 26.7663C106.502 26.7969 106.259 26.8123 105.984 26.7893L105.473 26.7432L105.723 26.8967C105.86 26.9811 106.09 27.0502 106.228 27.0502C106.408 27.0502 106.502 27.0885 106.527 27.1729C106.602 27.4031 106.496 27.4492 105.978 27.4031L105.473 27.3571L105.723 27.5105C105.86 27.5949 106.047 27.664 106.14 27.664C106.377 27.664 106.502 27.7407 106.502 27.8712C106.502 28.04 107.076 27.9709 107.437 27.7561Z" fill="white"/>
<path d="M110.014 13.7049C109.935 13.8207 109.852 13.9325 109.769 14.0348L110.014 14.038V13.7049Z" fill="white"/>
<path d="M110.014 13.7049V14.038L110.299 14.0416V13.246C110.214 13.3979 110.117 13.5548 110.014 13.7049Z" fill="white"/>
<path d="M103.621 20.8879C103.44 20.6564 103.271 20.4183 103.147 20.215V20.8879H103.621Z" fill="white"/>
<path d="M103.01 19.9662C102.917 19.7743 102.817 19.6132 102.792 19.6132C102.761 19.6132 102.692 19.8511 102.643 20.1426C102.606 20.3371 102.581 20.5681 102.566 20.8879H103.093H103.147V20.215C103.092 20.1238 103.045 20.0396 103.01 19.9662Z" fill="white"/>
<path d="M105.592 7.59708C105.66 7.78891 105.729 7.95004 105.741 7.95004C105.791 7.95004 105.66 7.31317 105.561 7.07531C105.511 6.95254 105.486 6.83744 105.498 6.81442C105.517 6.79908 105.704 6.73769 105.922 6.6763C106.539 6.51517 107.443 6.46146 107.961 6.56121C108.369 6.64263 108.977 6.85608 109.177 6.98397C109.203 7.00069 109.222 7.01596 109.233 7.02927C109.264 7.05996 109.245 7.19041 109.189 7.32085C109.033 7.68916 109.071 7.69683 109.308 7.35154C109.439 7.16739 109.701 6.93719 109.944 6.78373C110.088 6.69636 110.196 6.63902 110.299 6.60191V0.737305H109.183L103.871 0.737305V6.24298C104.572 6.23395 105.297 6.78479 105.592 7.59708Z" fill="white"/>
<path d="M110.299 32.3122V25.9819C109.791 26.4416 109.08 27.2051 108.341 27.6777C107.456 28.2437 106.97 28.4373 106.658 28.4373C106.408 28.4777 106.305 28.3007 106.284 28.2071C105.948 28.1852 105.445 28.1409 104.974 28.0536C104.504 27.9664 104.195 27.8351 103.871 27.645V32.3122H110.299Z" fill="white"/>
<path d="M110.299 14.0416L120.001 14.1653V12.7074L111.093 12.6784L110.571 12.6767C110.513 12.836 110.417 13.0362 110.299 13.246V14.0416Z" fill="white"/>
<path d="M110.299 25.9819V32.3122H111.093V25.1378C110.85 25.4448 110.462 25.8284 110.299 25.9819Z" fill="white"/>
<path d="M109.782 22.3755C109.447 22.0419 109.027 21.5315 109.027 21.3857C109.027 21.1555 109.133 21.1248 109.326 21.2859C109.42 21.3703 109.595 21.4931 109.713 21.5698C109.925 21.708 109.925 21.7003 109.607 21.2706C109.407 21.0097 109.295 20.7949 109.32 20.7258C109.37 20.557 109.482 20.58 109.819 20.8255C110.312 21.1785 110.38 21.1785 110.068 20.8025C109.906 20.603 109.775 20.3959 109.775 20.3345C109.775 20.135 109.95 20.135 110.162 20.3268C110.361 20.511 110.729 20.7642 110.804 20.7642C110.823 20.7642 110.711 20.6184 110.555 20.4342C110.23 20.0506 110.212 19.9585 110.436 19.8894C110.573 19.8434 110.661 19.9125 111.066 20.3882L111.093 20.4193C111.378 20.7511 111.507 20.901 111.721 20.8879H120.001V14.1653L110.299 14.0416L110.014 14.038L109.769 14.0348C109.445 14.4338 109.227 14.618 108.828 14.8482C108.173 15.2242 107.849 15.3162 107.238 15.3162C106.67 15.3162 106.128 15.1628 105.716 14.8942C105.554 14.7868 105.405 14.7024 105.373 14.7024C105.28 14.7024 105.748 15.0861 106.047 15.2549C106.209 15.3469 106.346 15.439 106.346 15.462C106.346 15.4851 106.041 15.7152 105.667 15.9608C105.049 16.3751 104.981 16.4442 104.918 16.6974C104.762 17.3496 104.843 17.8023 105.267 18.6694C105.561 19.2679 105.573 19.3063 105.461 19.3063C105.367 19.3063 104.831 18.984 104.6 18.7998C104.513 18.7308 104.557 18.8075 104.694 18.9763C104.837 19.1528 105.336 19.6362 105.592 19.7667C105.966 19.9969 106.359 20.2661 106.159 20.4193C106.029 20.5605 105.378 20.2884 105.286 20.227C104.923 19.9389 105.235 20.3027 105.579 20.7039L105.592 20.7181C105.785 20.9483 105.847 21.1478 105.723 21.1478C105.623 21.1478 105.049 20.7795 105.006 20.6874C104.987 20.6491 104.937 20.6107 104.893 20.6107C104.856 20.6107 104.974 20.8025 105.161 21.0327C105.411 21.3396 105.479 21.4778 105.43 21.5392C105.336 21.6543 105.168 21.5775 104.787 21.2552C104.619 21.1095 104.476 21.0174 104.476 21.0481C104.476 21.0788 104.607 21.2706 104.769 21.4701C104.852 21.6059 104.993 21.8865 104.893 21.9228C104.737 22.0072 104.694 21.9919 104.382 21.731C104.238 21.6063 104.056 21.4138 103.871 21.1956V24.9997C104.102 25.7517 106.407 25.7148 106.514 25.7517C106.701 25.8159 106.669 25.9801 106.926 25.9819C107.144 25.9834 107.427 25.7409 107.587 25.675C108.462 25.0261 110.28 23.5624 110.555 22.8985C110.442 22.8373 110.351 22.7823 110.299 22.7478C110.11 22.6452 109.897 22.4769 109.782 22.3755Z" fill="white"/>
<path d="M110.299 0.737305V6.60191C110.44 6.55102 110.571 6.53819 110.773 6.53819C110.881 6.53983 110.988 6.55303 111.093 6.57681V0.737305H110.299Z" fill="white"/>
<path d="M111.047 12.247C110.642 12.247 110.598 12.2623 110.63 12.3851C110.641 12.4437 110.619 12.5466 110.571 12.6767L111.093 12.6784V12.2467C111.078 12.2469 111.063 12.247 111.047 12.247Z" fill="white"/>
<path d="M102.2 15.8534L102.312 15.2472C102.374 14.9096 102.512 14.4262 102.611 14.1653C102.633 14.1132 102.658 14.058 102.686 14.0009C102.805 13.7606 102.976 13.4845 103.147 13.246C103.326 12.9984 103.505 12.7914 103.628 12.7074H95.1855V20.8879H102.566C102.581 20.5681 102.606 20.3371 102.643 20.1426C102.692 19.8511 102.761 19.6132 102.792 19.6132C101.961 18.3855 102.051 16.5951 102.2 15.8534Z" fill="white"/>
<path d="M111.066 20.3882C110.661 19.9125 110.573 19.8434 110.436 19.8894C110.212 19.9585 110.23 20.0506 110.555 20.4342C110.711 20.6184 110.823 20.7642 110.804 20.7642C110.729 20.7642 110.361 20.511 110.162 20.3268C109.95 20.135 109.775 20.135 109.775 20.3345C109.775 20.3959 109.906 20.603 110.068 20.8025C110.38 21.1785 110.312 21.1785 109.819 20.8255C109.482 20.58 109.37 20.557 109.32 20.7258C109.295 20.7949 109.407 21.0097 109.607 21.2706C109.925 21.7003 109.925 21.708 109.713 21.5698C109.595 21.4931 109.42 21.3703 109.326 21.2859C109.133 21.1248 109.027 21.1555 109.027 21.3857C109.027 21.5315 109.447 22.0419 109.782 22.3755C109.897 22.4769 110.11 22.6452 110.299 22.7478C110.351 22.7823 110.442 22.8373 110.555 22.8985C110.28 23.5624 108.462 25.0261 107.587 25.675C107.427 25.7409 107.144 25.9834 106.926 25.9819C106.669 25.9801 106.701 25.8159 106.514 25.7517C106.407 25.7148 104.102 25.7517 103.871 24.9997V21.1956M111.066 20.3882L111.093 20.4193M111.066 20.3882C111.075 20.3987 111.084 20.4091 111.093 20.4193M109.769 14.0348C109.445 14.4338 109.227 14.618 108.828 14.8482C108.173 15.2242 107.849 15.3162 107.238 15.3162C106.67 15.3162 106.128 15.1628 105.716 14.8942C105.554 14.7868 105.405 14.7024 105.373 14.7024C105.28 14.7024 105.748 15.0861 106.047 15.2549C106.209 15.3469 106.346 15.439 106.346 15.462C106.346 15.4851 106.041 15.7152 105.667 15.9608C105.049 16.3751 104.981 16.4442 104.918 16.6974C104.762 17.3496 104.843 17.8023 105.267 18.6694C105.561 19.2679 105.573 19.3063 105.461 19.3063C105.367 19.3063 104.831 18.984 104.6 18.7998C104.513 18.7308 104.557 18.8075 104.694 18.9763C104.837 19.1528 105.336 19.6362 105.592 19.7667C105.966 19.9969 106.359 20.2661 106.159 20.4193C106.029 20.5605 105.378 20.2884 105.286 20.227C104.923 19.9389 105.235 20.3027 105.579 20.7039M109.769 14.0348C109.852 13.9325 109.935 13.8207 110.014 13.7049M109.769 14.0348L110.014 14.038M105.592 20.7181C105.785 20.9483 105.847 21.1478 105.723 21.1478C105.623 21.1478 105.049 20.7795 105.006 20.6874C104.987 20.6491 104.937 20.6107 104.893 20.6107C104.856 20.6107 104.974 20.8025 105.161 21.0327C105.411 21.3396 105.479 21.4778 105.43 21.5392C105.336 21.6543 105.168 21.5775 104.787 21.2552C104.619 21.1095 104.476 21.0174 104.476 21.0481C104.476 21.0788 104.607 21.2706 104.769 21.4701C104.852 21.6059 104.993 21.8865 104.893 21.9228C104.737 22.0072 104.694 21.9919 104.382 21.731C104.238 21.6063 104.056 21.4138 103.871 21.1956M105.592 20.7181L105.579 20.7039M105.592 20.7181C105.588 20.7134 105.584 20.7086 105.579 20.7039M102.792 19.6132C102.817 19.6132 102.917 19.7743 103.01 19.9662C103.045 20.0396 103.092 20.1238 103.147 20.215M102.792 19.6132C102.761 19.6132 102.692 19.8511 102.643 20.1426C102.606 20.3371 102.581 20.5681 102.566 20.8879M102.792 19.6132C101.961 18.3855 102.051 16.5951 102.2 15.8534L102.312 15.2472C102.374 14.9096 102.512 14.4262 102.611 14.1653C102.633 14.1132 102.658 14.058 102.686 14.0009M120.001 14.1653V20.8879H111.721C111.507 20.901 111.378 20.7511 111.093 20.4193M120.001 14.1653L110.299 14.0416M120.001 14.1653V12.7074L111.093 12.6784M102.566 20.8879H103.093H103.147M102.566 20.8879H95.1855V12.7074H103.628C103.505 12.7914 103.326 12.9984 103.147 13.246C102.976 13.4845 102.805 13.7606 102.686 14.0009M102.686 14.0009L102.543 14.0014M110.299 25.9819V32.3122M110.299 25.9819C109.791 26.4416 109.08 27.2051 108.341 27.6777C107.456 28.2437 106.97 28.4373 106.658 28.4373C106.408 28.4777 106.305 28.3007 106.284 28.2071C105.948 28.1852 105.445 28.1409 104.974 28.0536C104.504 27.9664 104.195 27.8351 103.871 27.645V32.3122H110.299M110.299 25.9819C110.462 25.8284 110.85 25.4448 111.093 25.1378V32.3122H110.299M110.014 13.7049V14.038M110.014 13.7049C110.117 13.5548 110.214 13.3979 110.299 13.246M110.014 14.038L110.299 14.0416M110.299 14.0416V13.246M110.299 13.246C110.417 13.0362 110.513 12.836 110.571 12.6767M110.299 0.737305V6.60191M110.299 0.737305H109.183L103.871 0.737305V6.24298C104.572 6.23395 105.297 6.78479 105.592 7.59708C105.66 7.78891 105.729 7.95004 105.741 7.95004C105.791 7.95004 105.66 7.31317 105.561 7.07531C105.511 6.95254 105.486 6.83744 105.498 6.81442C105.517 6.79908 105.704 6.73769 105.922 6.6763C106.539 6.51517 107.443 6.46146 107.961 6.56121C108.369 6.64264 108.977 6.85608 109.177 6.98397C109.203 7.00069 109.222 7.01596 109.233 7.02927C109.264 7.05996 109.245 7.19041 109.189 7.32085C109.033 7.68916 109.071 7.69683 109.308 7.35154C109.439 7.16739 109.701 6.93719 109.944 6.78373C110.088 6.69636 110.196 6.63902 110.299 6.60191M110.299 0.737305H111.093V6.57681C110.988 6.55303 110.881 6.53983 110.773 6.53819C110.571 6.53819 110.44 6.55102 110.299 6.60191M103.621 20.8879C103.44 20.6564 103.271 20.4183 103.147 20.215M103.621 20.8879H103.147M103.621 20.8879C103.703 20.9931 103.787 21.0969 103.871 21.1956M103.147 7.05433C103.528 6.84462 104.066 6.85346 104.345 7.09833C104.644 7.35921 105.031 8.18024 104.856 8.18024C104.819 8.18024 104.787 8.12653 104.787 8.06514C104.787 7.86564 104.351 7.34387 104.114 7.26714C103.799 7.15651 103.453 7.25542 103.147 7.5073M103.147 7.05433C103.111 7.07463 103.075 7.09697 103.042 7.12135C102.512 7.505 102.219 8.04212 102.094 8.8478C102.038 9.21611 102.044 9.36957 102.131 9.73788C102.231 10.1522 102.543 10.7124 102.686 10.7124C102.717 10.7124 102.705 10.651 102.655 10.5819C102.35 10.1522 102.25 9.17774 102.449 8.57924C102.607 8.11768 102.859 7.7446 103.147 7.5073M103.147 7.05433V7.5073M103.147 20.215V20.8879M110.571 12.6767C110.619 12.5466 110.641 12.4437 110.63 12.3851C110.598 12.2623 110.642 12.247 111.047 12.247C111.063 12.247 111.078 12.2469 111.093 12.2467V12.6784M110.571 12.6767L111.093 12.6784M107.437 27.7561L107.718 27.5873L107.375 27.6256C107.188 27.6487 106.951 27.687 106.845 27.71C106.745 27.7254 106.62 27.71 106.571 27.6717C106.421 27.5566 106.589 27.3878 106.907 27.3341C107.057 27.3034 107.281 27.2343 107.406 27.1729C107.687 27.0271 107.699 26.8814 107.425 26.9811C107.119 27.0809 106.483 27.0732 106.514 26.9581C106.552 26.8353 106.664 26.7739 107.088 26.6588C107.288 26.6051 107.456 26.5054 107.531 26.421L107.718 26.2752L107.531 26.3212C107.431 26.3442 107.157 26.3903 106.926 26.421C106.663 26.456 106.54 26.4517 106.553 26.3212C106.559 26.2558 106.516 26.2327 106.448 26.2078C106.38 26.183 106.255 26.1716 106.034 26.1601C105.448 26.1217 105.455 26.2368 106.059 26.3826C106.427 26.4747 106.596 26.6128 106.521 26.7663C106.502 26.7969 106.259 26.8123 105.984 26.7893L105.473 26.7432L105.723 26.8967C105.86 26.9811 106.09 27.0502 106.228 27.0502C106.408 27.0502 106.502 27.0885 106.527 27.1729C106.602 27.4031 106.496 27.4492 105.978 27.4031L105.473 27.3571L105.723 27.5105C105.86 27.5949 106.047 27.664 106.14 27.664C106.377 27.664 106.502 27.7407 106.502 27.8712C106.502 28.04 107.076 27.9709 107.437 27.7561ZM108.03 14.4875C108.329 14.1269 108.435 13.5591 108.379 12.6767C108.323 11.7252 107.992 10.9656 107.556 10.7891C106.932 10.5359 106.346 11.6025 106.346 12.999C106.346 13.7816 106.433 14.1423 106.72 14.4875C106.945 14.7638 106.97 14.7791 107.375 14.7791C107.78 14.7791 107.805 14.7638 108.03 14.4875ZM105.966 11.5487C106.196 11.449 106.302 11.1881 106.246 10.8812C106.184 10.5743 106.103 10.4822 105.885 10.4822C105.442 10.4822 105.236 11.1421 105.573 11.472C105.766 11.6638 105.723 11.6562 105.966 11.5487ZM109.183 11.3646C109.426 11.073 109.376 10.628 109.083 10.4745C108.728 10.298 108.341 10.7124 108.466 11.1421C108.603 11.5871 108.927 11.6869 109.183 11.3646ZM112.506 10.1906C112.718 9.33121 112.488 8.34137 111.939 7.75054C111.371 7.13669 110.592 7.08298 110.187 7.63544C110.05 7.8196 110.118 7.85029 110.299 7.68148C110.636 7.36689 111.259 7.51268 111.721 8.01143C112.257 8.59459 112.488 9.78392 112.201 10.5282C111.989 11.073 111.995 11.0884 112.226 10.7738C112.338 10.6126 112.469 10.3517 112.506 10.1906Z" stroke="white" stroke-width="0.399513" stroke-linejoin="round"/>
</svg>
