<svg width="15" height="16" viewBox="0 0 15 16" fill="none" xmlns="http://www.w3.org/2000/svg">
<path d="M12.1881 6.09405C12.1881 7.43884 11.7516 8.68109 11.0162 9.68895L14.7253 13.401C15.0916 13.7673 15.0916 14.362 14.7253 14.7283C14.3591 15.0945 13.7643 15.0945 13.3981 14.7283L9.68895 11.0162C8.68109 11.7545 7.43884 12.1881 6.09405 12.1881C2.72767 12.1881 0 9.46042 0 6.09405C0 2.72767 2.72767 0 6.09405 0C9.46042 0 12.1881 2.72767 12.1881 6.09405ZM6.09405 10.313C8.42326 10.313 10.313 8.42326 10.313 6.09405C10.313 3.76483 8.42326 1.87509 6.09405 1.87509C3.76483 1.87509 1.87509 3.76483 1.87509 6.09405C1.87509 8.42326 3.76483 10.313 6.09405 10.313Z" fill="#5C705C"/>
</svg>
