<svg width="56" height="45" viewBox="0 0 56 45" fill="none" xmlns="http://www.w3.org/2000/svg">
<g clip-path="url(#clip0_1027_3217)">
<path d="M3.38765 0.444733C2.47975 -0.271109 1.16155 -0.105243 0.44571 0.802654C-0.270133 1.71055 -0.104267 3.02875 0.803631 3.74459L52.4839 44.2508C53.3918 44.9666 54.71 44.8008 55.4259 43.8929C56.1417 42.985 55.9758 41.6668 55.068 40.9509L30.8428 21.9636C35.6093 20.6891 39.1099 16.3417 39.1099 11.1736C39.1099 5.00168 34.1077 -0.000485863 27.9358 -0.000485863C21.8424 -0.000485863 16.8926 4.87073 16.7617 10.9292L3.38765 0.444733ZM23.0733 26.5642C14.8848 27.0095 8.38108 33.8012 8.38108 42.1033C8.38108 43.5349 9.54214 44.696 10.9738 44.696H44.8978C45.2382 44.696 45.5612 44.6349 45.858 44.5127L23.0733 26.5642Z" fill="black"/>
</g>
<defs>
<clipPath id="clip0_1027_3217">
<rect width="55.8706" height="44.6965" fill="white"/>
</clipPath>
</defs>
</svg>
