<svg width="24" height="24" xmlns="http://www.w3.org/2000/svg">

 <g>
  <title>background</title>
  <rect fill="none" id="canvas_background" height="402" width="582" y="-1" x="-1"/>
 </g>
 <g>
  <title>Layer 1</title>
  <path fill="#000000" id="svg_1" d="m18.9,8l-13.8,0c-0.6,0 -1.1,0.5 -1,1.1l1.6,13.1c0.1,1 1,1.7 2,1.7l8.5,0c1,0 1.9,-0.7 2,-1.7l1.6,-13.1c0.1,-0.6 -0.3,-1.1 -0.9,-1.1z"/>
  <path fill="#000000" id="svg_2" d="m20,2l-5,0l0,0c0,-1.1 -0.9,-2 -2,-2l-2,0c-1.1,0 -2,0.9 -2,2l0,0l-5,0c-1.1,0 -2,0.9 -2,2l0,1c0,0.6 0.4,1 1,1l18,0c0.6,0 1,-0.4 1,-1l0,-1c0,-1.1 -0.9,-2 -2,-2z"/>
 </g>
</svg>