<svg width="24" height="25" viewBox="0 0 24 25" fill="none" xmlns="http://www.w3.org/2000/svg">
<path d="M21.5431 0.793951C20.5653 -0.26465 18.9847 -0.26465 18.0069 0.793951L16.6629 2.24409L21.0341 6.97637L22.3781 5.5214C23.3559 4.4628 23.3559 2.75164 22.3781 1.69304L21.5431 0.793951ZM8.18394 11.4283C7.91158 11.7232 7.70172 12.0857 7.58117 12.4869L6.25954 16.7793C6.13005 17.195 6.23275 17.6542 6.5185 17.9684C6.80426 18.2826 7.22843 18.389 7.61689 18.2488L11.5818 16.818C11.9479 16.6826 12.2828 16.4603 12.5596 16.1654L20.0295 8.07364L15.6538 3.33653L8.18394 11.4283ZM4.7727 2.83865C2.40627 2.83865 0.486328 4.91718 0.486328 7.47909V19.8536C0.486328 22.4155 2.40627 24.494 4.7727 24.494H16.203C18.5695 24.494 20.4894 22.4155 20.4894 19.8536V15.2132C20.4894 14.3576 19.8509 13.6663 19.0606 13.6663C18.2703 13.6663 17.6318 14.3576 17.6318 15.2132V19.8536C17.6318 20.7092 16.9933 21.4004 16.203 21.4004H4.7727C3.9824 21.4004 3.34391 20.7092 3.34391 19.8536V7.47909C3.34391 6.62351 3.9824 5.93227 4.7727 5.93227H9.05907C9.84937 5.93227 10.4879 5.24104 10.4879 4.38546C10.4879 3.52988 9.84937 2.83865 9.05907 2.83865H4.7727Z" fill="black"/>
</svg>
