<svg width="31" height="28" viewBox="0 0 31 28" fill="transparent" xmlns="http://www.w3.org/2000/svg">
<g clip-path="url(#clip0_849_2896)">
<path d="M15.5827 0.874023C16.0619 0.874023 16.4994 1.14746 16.7077 1.57819L20.2806 8.93652L28.265 10.1188C28.7337 10.1865 29.1192 10.5146 29.2702 10.9626C29.416 11.4157 29.2962 11.9105 28.9629 12.2386L23.1712 17.9782L24.541 26.0771C24.6192 26.5459 24.4265 27.0251 24.0358 27.3011C23.6504 27.5772 23.0931 27.6136 22.7181 27.3897L15.5827 23.5771L8.40562 27.3897C8.03062 27.6136 7.5202 27.5772 7.12958 27.3011C6.74416 27.0251 6.55145 26.5459 6.5827 26.0771L7.99416 17.9782L2.20822 12.2386C1.87176 11.9105 1.75249 11.4157 1.90041 10.9626C2.04781 10.5146 2.43687 10.1865 2.9051 10.1188L10.8848 8.93652L14.4577 1.57819C14.6712 1.14741 15.1035 0.874023 15.5827 0.874023ZM15.5827 4.986L12.8483 10.624C12.666 10.9938 12.3119 11.2542 11.9056 11.3167L5.74312 12.223L10.2181 16.6553C10.5046 16.9417 10.6348 17.3532 10.5671 17.7542L9.51499 23.9834L14.9942 21.0563C15.364 20.8584 15.8067 20.8584 16.1712 21.0563L21.6504 23.9834L20.5983 17.7542C20.5306 17.3532 20.666 16.9417 20.9525 16.6553L25.4265 12.223L19.265 11.3167C18.8535 11.2542 18.4994 10.9938 18.3223 10.624L15.5827 4.986Z" fill="black"/>
</g>
<defs>
<clipPath id="clip0_849_2896">
<rect width="30" height="26.6667" fill="white" transform="translate(0.587891 0.874023)"/>
</clipPath>
</defs>
</svg>
