<svg xmlns="http://www.w3.org/2000/svg" viewBox="0 0 91.71 109.29"><title>Asset 38</title><g id="Layer_2" data-name="Layer 2"><g id="Layer_1-2" data-name="Layer 1"><rect x="18.6" y="52.32" width="12.86" height="20.81"/><rect x="18.6" y="77.51" width="12.86" height="5.06"/><rect x="39.43" y="77.51" width="12.86" height="5.06"/><rect x="39.43" y="43.23" width="12.86" height="29.9"/><rect x="60.25" y="36.08" width="12.86" height="37.05"/><rect x="60.25" y="77.51" width="12.86" height="5.06"/><path d="M83,0H39.87V5.2H83a3.56,3.56,0,0,1,3.55,3.55v91.79A3.55,3.55,0,0,1,83,104.08H8.75a3.56,3.56,0,0,1-3.55-3.54V33.9H23.9A10.71,10.71,0,0,0,34.6,23.2V0H27.05L0,27.05v73.49a8.76,8.76,0,0,0,8.75,8.75H83a8.76,8.76,0,0,0,8.75-8.75V8.75A8.76,8.76,0,0,0,83,0ZM29.2,5.2h.19v18a5.48,5.48,0,0,1-5.5,5.49H5.71Z"/></g></g></svg>