<svg width="19" height="24" viewBox="0 0 19 24" fill="none" xmlns="http://www.w3.org/2000/svg">
<path d="M10.2762 0.820402C9.75529 0.256481 8.90936 0.256481 8.38847 0.820402L3.05452 6.59496C2.53363 7.15888 2.53363 8.07469 3.05452 8.63861C3.57541 9.20253 4.42134 9.20253 4.94224 8.63861L8.00093 5.32726V14.8327C8.00093 15.6312 8.59683 16.2764 9.33441 16.2764C10.072 16.2764 10.6679 15.6312 10.6679 14.8327V5.32726L13.7266 8.63861C14.2475 9.20253 15.0934 9.20253 15.6143 8.63861C16.1352 8.07469 16.1352 7.15888 15.6143 6.59496L10.2804 0.820402H10.2762ZM2.66698 16.2764C2.66698 15.4778 2.07107 14.8327 1.33349 14.8327C0.595902 14.8327 0 15.4778 0 16.2764V19.1636C0 21.5547 1.79187 23.4945 4.00046 23.4945H14.6684C16.877 23.4945 18.6688 21.5547 18.6688 19.1636V16.2764C18.6688 15.4778 18.0729 14.8327 17.3353 14.8327C16.5978 14.8327 16.0019 15.4778 16.0019 16.2764V19.1636C16.0019 19.9621 15.4059 20.6073 14.6684 20.6073H4.00046C3.26288 20.6073 2.66698 19.9621 2.66698 19.1636V16.2764Z" fill="currentColor"/>
</svg>
