<svg width="20" height="21" viewBox="0 0 20 21" fill="none" xmlns="http://www.w3.org/2000/svg">
<path d="M16.2508 8.1254C16.2508 9.91845 15.6687 11.5748 14.6882 12.9186L19.6338 17.8681C20.1221 18.3564 20.1221 19.1494 19.6338 19.6377C19.1455 20.126 18.3525 20.126 17.8642 19.6377L12.9186 14.6882C11.5748 15.6726 9.91845 16.2508 8.1254 16.2508C3.6369 16.2508 0 12.6139 0 8.1254C0 3.6369 3.6369 0 8.1254 0C12.6139 0 16.2508 3.6369 16.2508 8.1254ZM8.1254 13.7507C11.231 13.7507 13.7507 11.231 13.7507 8.1254C13.7507 5.01978 11.231 2.50012 8.1254 2.50012C5.01978 2.50012 2.50012 5.01978 2.50012 8.1254C2.50012 11.231 5.01978 13.7507 8.1254 13.7507Z" fill="#5C705C"/>
</svg>
