<svg width="524" height="145" viewBox="0 0 524 145" fill="none" xmlns="http://www.w3.org/2000/svg">
<path d="M465.593 46.7254C467.028 45.5261 467.536 43.6379 467.267 40.7035C466.998 37.5395 465.414 35.0134 463.321 34.4265C460.331 33.5844 457.52 37.1312 457.52 41.7752C457.52 44.3779 457.939 45.5772 459.314 46.7254C460.39 47.644 460.51 47.695 462.454 47.695C464.397 47.695 464.517 47.644 465.593 46.7254Z" fill="white"/>
<path d="M471.124 36.3402C472.29 35.3706 472.051 33.8906 470.646 33.3803C468.942 32.7934 467.088 34.1713 467.686 35.6002C468.344 37.0802 469.898 37.4119 471.124 36.3402Z" fill="white"/>
<path d="M487.061 32.4362C488.077 29.5784 486.971 26.2868 484.34 24.322C481.619 22.2807 477.882 22.1021 475.938 23.9392C475.28 24.5516 475.609 24.6537 476.476 24.0923C478.091 23.0462 481.081 23.531 483.293 25.1896C485.865 27.1288 486.971 31.0838 485.596 33.5589C484.579 35.3706 484.609 35.4216 485.715 34.3755C486.254 33.8396 486.881 32.9721 487.061 32.4362Z" fill="white"/>
<path d="M439.82 33.7375C438.355 32.3086 437.876 29.068 438.833 27.0778C439.587 25.5429 440.799 24.3022 442.181 23.5131C443.648 22.6755 445.307 22.3466 446.816 22.7145C447.952 22.9696 450.045 24.7047 450.045 25.3682C450.045 25.5723 450.195 25.7509 450.374 25.7509C451.211 25.7509 449.358 23.0207 447.922 22.1531C446.587 21.3388 444.008 21.3094 442.181 22.0068C442.004 22.0743 441.834 22.1486 441.673 22.2297C439.132 23.5055 437.727 25.2916 437.129 27.9708C436.86 29.1956 436.889 29.706 437.308 30.9307C437.786 32.3086 439.281 34.1713 439.969 34.1713C440.119 34.1713 440.059 33.9672 439.82 33.7375Z" fill="white"/>
<path d="M455.696 36.9526C456.803 36.6209 457.311 35.7533 457.042 34.7327C456.743 33.712 456.354 33.4058 455.308 33.4058C453.185 33.4058 452.198 35.6002 453.813 36.6974C454.739 37.3354 454.53 37.3098 455.696 36.9526Z" fill="white"/>
<path d="M462.753 90.8489L464.098 90.2876L462.454 90.4151C461.557 90.4917 460.42 90.6193 459.912 90.6958C459.434 90.7469 458.836 90.6958 458.596 90.5682C457.879 90.1855 458.686 89.6241 460.211 89.4455C460.929 89.3435 462.005 89.1138 462.603 88.9097C463.948 88.4249 464.008 87.9401 462.693 88.2718C461.228 88.6035 458.178 88.5779 458.327 88.1952C458.507 87.7869 459.045 87.5828 461.078 87.2001C462.035 87.0215 462.842 86.6897 463.201 86.4091L464.098 85.9243L463.201 86.0773C462.723 86.1539 461.407 86.307 460.301 86.4091C459.039 86.5255 458.451 86.5111 458.511 86.0773C458.541 85.8598 458.335 85.7831 458.007 85.7002C457.681 85.6178 457.083 85.5797 456.025 85.5415C453.215 85.4139 453.244 85.7967 456.145 86.2815C457.909 86.5877 458.716 87.047 458.357 87.5573C458.268 87.6594 457.102 87.7104 455.786 87.6339L453.334 87.4808L454.53 87.9911C455.188 88.2718 456.294 88.5014 456.952 88.5014C457.819 88.5014 458.268 88.629 458.387 88.9097C458.746 89.6752 458.238 89.8283 455.756 89.6752L453.334 89.5221L454.53 90.0324C455.188 90.3131 456.085 90.5427 456.533 90.5427C457.67 90.5427 458.268 90.7979 458.268 91.2317C458.268 91.793 461.018 91.5634 462.753 90.8489Z" fill="white"/>
<path d="M475.109 44.1227C474.729 44.5079 474.334 44.8797 473.935 45.2199L475.109 45.2303V44.1227Z" fill="white"/>
<path d="M475.109 44.1227V45.2303L476.476 45.2424V42.5969C476.067 43.1018 475.601 43.6235 475.109 44.1227Z" fill="white"/>
<path d="M444.451 68.0092C443.586 67.2393 442.776 66.4475 442.181 65.7717V68.0092H444.451Z" fill="white"/>
<path d="M441.524 64.9441C441.075 64.3062 440.597 63.7704 440.477 63.7704C440.328 63.7704 439.999 64.5614 439.76 65.531C439.585 66.1777 439.467 66.9457 439.392 68.0092H441.921H442.181V65.7717C441.914 65.4683 441.69 65.1883 441.524 64.9441Z" fill="white"/>
<path d="M453.902 23.8117C454.231 24.4496 454.56 24.9854 454.62 24.9854C454.859 24.9854 454.231 22.8676 453.753 22.0765C453.514 21.6683 453.394 21.2855 453.454 21.209C453.543 21.158 454.44 20.9538 455.487 20.7497C458.447 20.2139 462.782 20.0352 465.264 20.3669C467.221 20.6377 470.136 21.3475 471.094 21.7728C471.22 21.8284 471.312 21.8792 471.364 21.9235C471.513 22.0255 471.423 22.4593 471.154 22.8931C470.407 24.1179 470.586 24.1434 471.722 22.9951C472.35 22.3827 473.606 21.6173 474.772 21.1069C475.466 20.8164 475.984 20.6257 476.476 20.5023V1L471.124 1L445.65 1V19.3087C449.012 19.2787 452.487 21.1104 453.902 23.8117Z" fill="white"/>
<path d="M476.476 106V84.949C474.038 86.4776 470.631 89.0166 467.088 90.5881C462.844 92.4705 460.51 93.1142 459.015 93.1142C457.819 93.2487 457.321 92.6599 457.221 92.3487C455.609 92.2758 453.198 92.1286 450.942 91.8384C448.687 91.5482 447.203 91.1116 445.65 90.4795V106H476.476Z" fill="white"/>
<path d="M476.476 45.2424L523 45.6537V40.8056L480.282 40.7092L477.782 40.7035C477.503 41.2334 477.043 41.8991 476.476 42.5969V45.2424Z" fill="white"/>
<path d="M476.476 84.949V106H480.282V82.1422C479.117 83.1628 477.259 84.4386 476.476 84.949Z" fill="white"/>
<path d="M473.995 72.9563C472.39 71.8468 470.377 70.1495 470.377 69.6646C470.377 68.8992 470.885 68.7971 471.812 69.3329C472.261 69.6136 473.098 70.0219 473.666 70.277C474.682 70.7363 474.682 70.7108 473.158 69.2819C472.201 68.4143 471.663 67.6999 471.782 67.4702C472.021 66.9089 472.56 66.9854 474.174 67.8019C476.536 68.9757 476.865 68.9757 475.37 67.7254C474.593 67.062 473.965 66.373 473.965 66.1689C473.965 65.5055 474.802 65.5055 475.819 66.1434C476.775 66.7558 478.539 67.5978 478.898 67.5978C478.988 67.5978 478.45 67.113 477.702 66.5006C476.147 65.2248 476.058 64.9186 477.134 64.6889C477.792 64.5359 478.211 64.7655 480.154 66.3475L480.282 66.4509C481.65 67.5545 482.268 68.0529 483.293 68.0092H523V45.6537L476.476 45.2424L475.109 45.2303L473.935 45.2199C472.38 46.5468 471.334 47.1592 469.42 47.9247C466.281 49.175 464.726 49.4812 461.796 49.4812C459.075 49.4812 456.474 48.9708 454.5 48.0778C453.723 47.7205 453.005 47.4399 452.856 47.4399C452.407 47.4399 454.65 48.7157 456.085 49.277C456.862 49.5832 457.52 49.8894 457.52 49.966C457.52 50.0425 456.055 50.808 454.261 51.6245C451.301 53.0024 450.972 53.2321 450.673 54.0741C449.926 56.243 450.314 57.7485 452.347 60.6318C453.753 62.6221 453.813 62.7497 453.274 62.7497C452.826 62.7497 450.255 61.678 449.148 61.0656C448.73 60.836 448.939 61.0911 449.597 61.6525C450.284 62.2394 452.676 63.8469 453.902 64.2807C455.696 65.0462 457.58 65.9416 456.623 66.4509C456.001 66.9204 452.876 66.0158 452.437 65.8117C450.694 64.8534 452.192 66.0634 453.843 67.3972L453.902 67.4447C454.829 68.2102 455.128 68.8736 454.53 68.8736C454.052 68.8736 451.301 67.6488 451.092 67.3426C451.002 67.2151 450.763 67.0875 450.554 67.0875C450.374 67.0875 450.942 67.7254 451.839 68.4909C453.035 69.5115 453.364 69.9708 453.125 70.175C452.676 70.5577 451.869 70.3026 450.045 69.2309C449.238 68.7461 448.55 68.4399 448.55 68.5419C448.55 68.644 449.178 69.2819 449.956 69.9453C450.354 70.3968 451.032 71.3299 450.554 71.4508C449.806 71.7315 449.597 71.6804 448.102 70.8129C447.409 70.3983 446.538 69.7581 445.65 69.0324V81.6829C446.756 84.1835 457.813 84.0607 458.327 84.1835C459.222 84.397 459.069 84.9429 460.301 84.949C461.345 84.9541 462.701 84.1475 463.47 83.9283C467.666 81.7705 476.387 76.903 477.702 74.6953C477.16 74.4918 476.727 74.309 476.476 74.1942C475.57 73.853 474.548 73.2933 473.995 72.9563Z" fill="white"/>
<path d="M476.476 1V20.5023C477.152 20.3331 477.78 20.2904 478.749 20.2904C479.268 20.2959 479.78 20.3398 480.282 20.4188V1H476.476Z" fill="white"/>
<path d="M480.064 39.2746C478.121 39.2746 477.912 39.3256 478.061 39.7339C478.116 39.9289 478.009 40.2709 477.782 40.7035L480.282 40.7092V39.2737C480.21 39.2743 480.138 39.2746 480.064 39.2746Z" fill="white"/>
<path d="M437.637 51.2673L438.175 49.2515C438.474 48.1288 439.132 46.5213 439.61 45.6537C439.713 45.4804 439.834 45.2971 439.969 45.1071C440.537 44.308 441.357 43.3898 442.181 42.5969C443.037 41.7734 443.897 41.085 444.484 40.8056H404V68.0092H439.392C439.467 66.9457 439.585 66.1777 439.76 65.531C439.999 64.5614 440.328 63.7704 440.477 63.7704C436.494 59.6877 436.924 53.7339 437.637 51.2673Z" fill="white"/>
<path d="M480.154 66.3475C478.211 64.7655 477.792 64.5359 477.134 64.689C476.058 64.9186 476.147 65.2248 477.702 66.5006C478.45 67.113 478.988 67.5978 478.898 67.5978C478.539 67.5978 476.775 66.7558 475.819 66.1434C474.802 65.5055 473.965 65.5055 473.965 66.1689C473.965 66.373 474.593 67.062 475.37 67.7254C476.865 68.9757 476.536 68.9757 474.174 67.8019C472.56 66.9854 472.021 66.9089 471.782 67.4702C471.663 67.6999 472.201 68.4143 473.158 69.2819C474.682 70.7108 474.682 70.7363 473.666 70.277C473.098 70.0219 472.261 69.6136 471.812 69.3329C470.885 68.7971 470.377 68.8992 470.377 69.6646C470.377 70.1495 472.39 71.8468 473.995 72.9563C474.548 73.2933 475.57 73.853 476.476 74.1942C476.727 74.309 477.16 74.4918 477.702 74.6953C476.387 76.903 467.666 81.7705 463.47 83.9283C462.701 84.1475 461.345 84.9541 460.301 84.949C459.069 84.9429 459.222 84.397 458.327 84.1835C457.813 84.0607 446.756 84.1835 445.65 81.6829V69.0324M480.154 66.3475L480.282 66.4509M480.154 66.3475C480.197 66.3825 480.24 66.417 480.282 66.4509M473.935 45.2199C472.38 46.5468 471.334 47.1592 469.42 47.9247C466.281 49.175 464.726 49.4812 461.796 49.4812C459.075 49.4812 456.474 48.9708 454.5 48.0778C453.723 47.7205 453.005 47.4399 452.856 47.4399C452.407 47.4399 454.65 48.7157 456.085 49.277C456.862 49.5832 457.52 49.8894 457.52 49.966C457.52 50.0425 456.055 50.808 454.261 51.6245C451.301 53.0024 450.972 53.2321 450.673 54.0741C449.926 56.243 450.314 57.7485 452.347 60.6318C453.753 62.6221 453.813 62.7497 453.274 62.7497C452.826 62.7497 450.255 61.678 449.148 61.0656C448.73 60.836 448.939 61.0911 449.597 61.6525C450.284 62.2394 452.676 63.8469 453.902 64.2807C455.696 65.0462 457.58 65.9416 456.623 66.4509C456.001 66.9204 452.876 66.0158 452.437 65.8117C450.694 64.8534 452.192 66.0634 453.843 67.3972M473.935 45.2199C474.334 44.8797 474.729 44.5079 475.109 44.1227M473.935 45.2199L475.109 45.2303M453.902 67.4447C454.829 68.2102 455.128 68.8736 454.53 68.8736C454.052 68.8736 451.301 67.6488 451.092 67.3426C451.002 67.2151 450.763 67.0875 450.554 67.0875C450.374 67.0875 450.942 67.7254 451.839 68.4909C453.035 69.5115 453.364 69.9708 453.125 70.175C452.676 70.5577 451.869 70.3026 450.045 69.2309C449.238 68.7461 448.55 68.4399 448.55 68.5419C448.55 68.644 449.178 69.2819 449.956 69.9453C450.354 70.3968 451.032 71.3299 450.554 71.4508C449.806 71.7315 449.597 71.6804 448.102 70.8129C447.409 70.3983 446.538 69.7581 445.65 69.0324M453.902 67.4447L453.843 67.3972M453.902 67.4447C453.883 67.4289 453.863 67.4131 453.843 67.3972M440.477 63.7704C440.597 63.7704 441.075 64.3062 441.524 64.9441C441.69 65.1883 441.914 65.4683 442.181 65.7717M440.477 63.7704C440.328 63.7704 439.999 64.5614 439.76 65.531C439.585 66.1777 439.467 66.9457 439.392 68.0092M440.477 63.7704C436.494 59.6877 436.924 53.7339 437.637 51.2673L438.175 49.2515C438.474 48.1288 439.132 46.5213 439.61 45.6537C439.713 45.4804 439.834 45.2971 439.969 45.1071M523 45.6537V68.0092H483.293C482.268 68.0529 481.65 67.5545 480.282 66.4509M523 45.6537L476.476 45.2424M523 45.6537V40.8056L480.282 40.7092M439.392 68.0092H441.921H442.181M439.392 68.0092H404V40.8056H444.484C443.897 41.085 443.037 41.7734 442.181 42.5969C441.357 43.3898 440.537 44.308 439.969 45.1071M439.969 45.1071L439.281 45.1087M476.476 84.949V106M476.476 84.949C474.038 86.4776 470.631 89.0166 467.088 90.5881C462.844 92.4705 460.51 93.1142 459.015 93.1142C457.819 93.2487 457.321 92.6599 457.221 92.3487C455.609 92.2758 453.198 92.1286 450.942 91.8384C448.687 91.5482 447.203 91.1116 445.65 90.4795V106H476.476M476.476 84.949C477.259 84.4386 479.117 83.1628 480.282 82.1422V106H476.476M475.109 44.1227V45.2303M475.109 44.1227C475.601 43.6235 476.067 43.1018 476.476 42.5969M475.109 45.2303L476.476 45.2424M476.476 45.2424V42.5969M476.476 42.5969C477.043 41.8991 477.503 41.2334 477.782 40.7035M476.476 1V20.5023M476.476 1L471.124 1L445.65 1V19.3087C449.012 19.2787 452.487 21.1104 453.902 23.8117C454.231 24.4496 454.56 24.9854 454.62 24.9854C454.859 24.9854 454.231 22.8676 453.753 22.0766C453.514 21.6683 453.394 21.2855 453.454 21.209C453.543 21.158 454.44 20.9538 455.487 20.7497C458.447 20.2138 462.782 20.0352 465.264 20.3669C467.221 20.6377 470.136 21.3475 471.094 21.7728C471.22 21.8284 471.312 21.8792 471.364 21.9235C471.513 22.0255 471.423 22.4593 471.154 22.8931C470.407 24.1179 470.586 24.1434 471.722 22.9951C472.35 22.3827 473.606 21.6173 474.772 21.1069C475.466 20.8164 475.984 20.6257 476.476 20.5023M476.476 1H480.282V20.4188C479.78 20.3398 479.268 20.2959 478.749 20.2904C477.78 20.2904 477.152 20.3331 476.476 20.5023M444.451 68.0092C443.586 67.2393 442.776 66.4475 442.181 65.7717M444.451 68.0092H442.181M444.451 68.0092C444.844 68.3591 445.249 68.7045 445.65 69.0324M442.181 22.0068C444.008 21.3094 446.587 21.3388 447.922 22.1531C449.358 23.0207 451.211 25.7509 450.374 25.7509C450.195 25.7509 450.045 25.5723 450.045 25.3682C450.045 24.7047 447.952 22.9696 446.816 22.7145C445.307 22.3466 443.648 22.6755 442.181 23.5131M442.181 22.0068C442.004 22.0743 441.834 22.1486 441.673 22.2297C439.132 23.5055 437.727 25.2916 437.129 27.9708C436.86 29.1956 436.889 29.706 437.308 30.9307C437.786 32.3086 439.281 34.1713 439.969 34.1713C440.119 34.1713 440.059 33.9672 439.82 33.7375C438.355 32.3086 437.876 29.068 438.833 27.0778C439.587 25.5429 440.799 24.3022 442.181 23.5131M442.181 22.0068V23.5131M442.181 65.7717V68.0092M477.782 40.7035C478.009 40.2709 478.116 39.9289 478.061 39.7339C477.912 39.3256 478.121 39.2746 480.064 39.2746C480.138 39.2746 480.21 39.2743 480.282 39.2737V40.7092M477.782 40.7035L480.282 40.7092M462.753 90.8489L464.098 90.2876L462.454 90.4151C461.557 90.4917 460.42 90.6193 459.912 90.6958C459.434 90.7469 458.836 90.6958 458.596 90.5682C457.879 90.1855 458.686 89.6241 460.211 89.4455C460.929 89.3434 462.005 89.1138 462.603 88.9097C463.948 88.4249 464.008 87.9401 462.693 88.2718C461.228 88.6035 458.178 88.578 458.327 88.1952C458.507 87.7869 459.045 87.5828 461.078 87.2001C462.035 87.0215 462.842 86.6897 463.201 86.4091L464.098 85.9243L463.201 86.0773C462.723 86.1539 461.407 86.307 460.301 86.4091C459.039 86.5255 458.451 86.5111 458.511 86.0773C458.541 85.8598 458.335 85.7831 458.007 85.7002C457.681 85.6178 457.083 85.5797 456.025 85.5415C453.215 85.4139 453.244 85.7967 456.145 86.2815C457.909 86.5877 458.716 87.047 458.357 87.5573C458.268 87.6594 457.102 87.7104 455.786 87.6339L453.334 87.4807L454.53 87.9911C455.188 88.2718 456.294 88.5014 456.952 88.5014C457.819 88.5014 458.268 88.629 458.387 88.9097C458.746 89.6752 458.238 89.8283 455.756 89.6752L453.334 89.5221L454.53 90.0324C455.188 90.3131 456.085 90.5427 456.533 90.5427C457.67 90.5427 458.268 90.7979 458.268 91.2317C458.268 91.793 461.018 91.5634 462.753 90.8489ZM465.593 46.7254C467.028 45.5261 467.536 43.6379 467.267 40.7035C466.998 37.5395 465.414 35.0134 463.321 34.4265C460.331 33.5844 457.52 37.1312 457.52 41.7752C457.52 44.3779 457.939 45.5772 459.314 46.7254C460.39 47.644 460.51 47.695 462.454 47.695C464.397 47.695 464.517 47.644 465.593 46.7254ZM455.696 36.9526C456.803 36.6209 457.311 35.7533 457.042 34.7327C456.743 33.712 456.354 33.4058 455.308 33.4058C453.185 33.4058 452.198 35.6002 453.813 36.6974C454.739 37.3354 454.53 37.3098 455.696 36.9526ZM471.124 36.3402C472.29 35.3706 472.051 33.8906 470.646 33.3803C468.942 32.7934 467.088 34.1713 467.686 35.6002C468.344 37.0802 469.898 37.4119 471.124 36.3402ZM487.061 32.4362C488.077 29.5784 486.971 26.2868 484.34 24.322C481.619 22.2807 477.882 22.1021 475.938 23.9392C475.28 24.5516 475.609 24.6537 476.476 24.0923C478.091 23.0462 481.081 23.531 483.293 25.1896C485.865 27.1288 486.971 31.0838 485.596 33.5589C484.579 35.3706 484.609 35.4216 485.715 34.3755C486.254 33.8396 486.881 32.9721 487.061 32.4362Z" stroke="white" stroke-width="0.399513" stroke-linejoin="round"/>
<path d="M7.936 56.9788H29.056V143.635H7.936V56.9788ZM75.52 56.9788C74.3253 63.0374 72.9173 68.2428 71.296 72.5948C69.76 76.9468 68.0533 80.7441 66.176 83.9868C64.2987 87.1441 62.2933 89.8321 60.16 92.0508C58.0267 94.2694 55.808 96.2748 53.504 98.0668L83.456 143.635H59.904L30.464 96.1468V94.6108C34.2187 92.8188 37.376 90.7281 39.936 88.3388C42.5813 85.8641 44.8 83.0908 46.592 80.0188C48.384 76.8614 49.8773 73.4054 51.072 69.6508C52.352 65.8108 53.504 61.5868 54.528 56.9788H75.52ZM120.434 55.8268C127.175 55.8268 132.978 56.8508 137.842 58.8988C142.706 60.9468 146.717 63.8481 149.874 67.6028C153.031 71.3574 155.335 75.9654 156.786 81.4268C158.322 86.8028 159.09 92.8614 159.09 99.6028C159.09 106.259 158.237 112.36 156.53 117.907C154.909 123.368 152.434 128.061 149.106 131.987C145.778 135.912 141.597 138.984 136.562 141.203C131.527 143.336 125.597 144.403 118.77 144.403C112.029 144.403 106.183 143.464 101.234 141.587C96.37 139.624 92.3593 136.808 89.202 133.139C86.0447 129.384 83.698 124.861 82.162 119.571C80.7113 114.28 79.986 108.221 79.986 101.395C79.986 94.7388 80.7967 88.6374 82.418 83.0908C84.1247 77.4588 86.642 72.6374 89.97 68.6268C93.298 64.5308 97.4793 61.3734 102.514 59.1548C107.634 56.9361 113.607 55.8268 120.434 55.8268ZM118.642 70.8028C113.095 70.8028 109.042 73.4054 106.482 78.6108C104.007 83.7308 102.77 90.8561 102.77 99.9868C102.77 104.339 103.026 108.307 103.538 111.891C104.135 115.475 105.074 118.589 106.354 121.235C107.719 123.795 109.554 125.8 111.858 127.251C114.162 128.701 117.063 129.427 120.562 129.427C126.109 129.427 130.119 126.952 132.594 122.003C135.069 117.053 136.306 110.013 136.306 100.883C136.306 96.5308 136.007 92.5201 135.41 88.8508C134.898 85.1814 133.959 82.0241 132.594 79.3788C131.314 76.6481 129.522 74.5574 127.218 73.1068C124.914 71.5708 122.055 70.8028 118.642 70.8028ZM193.518 56.9788H212.334L244.078 143.635H222.702L216.302 122.771H188.27L181.614 143.635H160.622L193.518 56.9788ZM211.566 107.155C210.713 104.68 209.817 102.12 208.878 99.4748C208.025 96.7441 207.171 94.0988 206.318 91.5388C205.55 88.9788 204.825 86.5894 204.142 84.3708C203.459 82.0668 202.862 80.1468 202.35 78.6108C201.838 80.2321 201.241 82.1948 200.558 84.4988C199.875 86.7174 199.107 89.1068 198.254 91.6668C197.486 94.2268 196.633 96.8294 195.694 99.4748C194.841 102.12 193.987 104.68 193.134 107.155H211.566ZM251.811 56.9788H272.931V128.147H303.395V143.635H251.811V56.9788ZM339.143 56.9788H357.959L389.703 143.635H368.327L361.927 122.771H333.895L327.239 143.635H306.247L339.143 56.9788ZM357.191 107.155C356.338 104.68 355.442 102.12 354.503 99.4748C353.65 96.7441 352.796 94.0988 351.943 91.5388C351.175 88.9788 350.45 86.5894 349.767 84.3708C349.084 82.0668 348.487 80.1468 347.975 78.6108C347.463 80.2321 346.866 82.1948 346.183 84.4988C345.5 86.7174 344.732 89.1068 343.879 91.6668C343.111 94.2268 342.258 96.8294 341.319 99.4748C340.466 102.12 339.612 104.68 338.759 107.155H357.191Z" fill="white"/>
</svg>
